<?xml version="1.0" encoding="UTF-8"?>
<svg width="614px" height="418px" viewBox="0 0 614 418" version="1.1" xmlns="http://www.w3.org/2000/svg" xmlns:xlink="http://www.w3.org/1999/xlink">
    <!-- Generator: Sketch 51.2 (57519) - http://www.bohemiancoding.com/sketch -->
    <title>Poster-photo</title>
    <desc>Created with Sketch.</desc>
    <defs></defs>
    <g id="Page-1" stroke="none" stroke-width="1" fill="none" fill-rule="evenodd">
        <g id="Portfolio" transform="translate(-627.000000, -2852.000000)">
            <g id="Poster-photo" transform="translate(627.000000, 2852.000000)">
                <rect id="Rectangle" stroke="#000000" stroke-width="13" fill="#FFFFFF" x="6.5" y="6.5" width="601" height="405"></rect>
                <path d="M14,13 C24.6666667,32.1281759 24.6666667,50.4838161 14,68.0669205 C3.33333333,85.6500249 3.33333333,107.627718 14,134" id="Path-3" stroke="#000000" stroke-width="2"></path>
                <path d="M21,13 C31.6666667,32.1281759 31.6666667,50.4838161 21,68.0669205 C10.3333333,85.6500249 10.3333333,107.627718 21,134" id="Path-3-Copy-4" stroke="#000000" stroke-width="2"></path>
                <path d="M29,13 C39.6666667,32.1281759 39.6666667,50.4838161 29,68.0669205 C18.3333333,85.6500249 18.3333333,107.627718 29,134" id="Path-3-Copy-8" stroke="#000000" stroke-width="2"></path>
                <path d="M14,134 C24.6666667,152.970092 24.6666667,171.174032 14,188.611822 C3.33333333,206.049611 3.33333333,227.845671 14,254" id="Path-3-Copy" stroke="#000000" stroke-width="2"></path>
                <path d="M21,134 C31.6666667,152.970092 31.6666667,171.174032 21,188.611822 C10.3333333,206.049611 10.3333333,227.845671 21,254" id="Path-3-Copy-5" stroke="#000000" stroke-width="2"></path>
                <path d="M29,134 C39.6666667,152.970092 39.6666667,171.174032 29,188.611822 C18.3333333,206.049611 18.3333333,227.845671 29,254" id="Path-3-Copy-9" stroke="#000000" stroke-width="2"></path>
                <path d="M14,254 C24.6666667,272.970092 24.6666667,291.174032 14,308.611822 C3.33333333,326.049611 3.33333333,347.845671 14,374" id="Path-3-Copy-2" stroke="#000000" stroke-width="2"></path>
                <path d="M21,254 C31.6666667,272.970092 31.6666667,291.174032 21,308.611822 C10.3333333,326.049611 10.3333333,347.845671 21,374" id="Path-3-Copy-6" stroke="#000000" stroke-width="2"></path>
                <path d="M29,254 C39.6666667,272.970092 39.6666667,291.174032 29,308.611822 C18.3333333,326.049611 18.3333333,347.845671 29,374" id="Path-3-Copy-10" stroke="#000000" stroke-width="2"></path>
                <path d="M15,373 C20.0469173,386.936816 22.3647588,397.270149 21.9535245,404" id="Path-3-Copy-3" stroke="#000000" stroke-width="2"></path>
                <path d="M21,373 C26.0469173,386.936816 28.3647588,397.270149 27.9535245,404" id="Path-3-Copy-7" stroke="#000000" stroke-width="2"></path>
                <path d="M28,373 C33.0469173,386.936816 35.3647588,397.270149 34.9535245,404" id="Path-3-Copy-11" stroke="#000000" stroke-width="2"></path>
                <path d="M36,13 C46.6666667,32.1281759 46.6666667,50.4838161 36,68.0669205 C25.3333333,85.6500249 25.3333333,107.627718 36,134" id="Path-3-Copy-15" stroke="#000000" stroke-width="2"></path>
                <path d="M36,134 C46.6666667,152.970092 46.6666667,171.174032 36,188.611822 C25.3333333,206.049611 25.3333333,227.845671 36,254" id="Path-3-Copy-14" stroke="#000000" stroke-width="2"></path>
                <path d="M36,254 C46.6666667,272.970092 46.6666667,291.174032 36,308.611822 C25.3333333,326.049611 25.3333333,347.845671 36,374" id="Path-3-Copy-13" stroke="#000000" stroke-width="2"></path>
                <path d="M35,373 C40.0469173,386.936816 42.3647588,397.270149 41.9535245,404" id="Path-3-Copy-12" stroke="#000000" stroke-width="2"></path>
                <path d="M43,13 C53.6666667,32.1281759 53.6666667,50.4838161 43,68.0669205 C32.3333333,85.6500249 32.3333333,107.627718 43,134" id="Path-3-Copy-19" stroke="#000000" stroke-width="2"></path>
                <path d="M43,134 C53.6666667,152.970092 53.6666667,171.174032 43,188.611822 C32.3333333,206.049611 32.3333333,227.845671 43,254" id="Path-3-Copy-18" stroke="#000000" stroke-width="2"></path>
                <path d="M43,254 C53.6666667,272.970092 53.6666667,291.174032 43,308.611822 C32.3333333,326.049611 32.3333333,347.845671 43,374" id="Path-3-Copy-17" stroke="#000000" stroke-width="2"></path>
                <path d="M44,373 C49.0469173,386.936816 51.3647588,397.270149 50.9535245,404" id="Path-3-Copy-16" stroke="#000000" stroke-width="2"></path>
                <path d="M52,13 C62.6666667,32.1281759 62.6666667,50.4838161 52,68.0669205 C41.3333333,85.6500249 41.3333333,107.627718 52,134" id="Path-3-Copy-23" stroke="#000000" stroke-width="2"></path>
                <path d="M52,134 C62.6666667,152.970092 62.6666667,171.174032 52,188.611822 C41.3333333,206.049611 41.3333333,227.845671 52,254" id="Path-3-Copy-22" stroke="#000000" stroke-width="2"></path>
                <path d="M52,254 C62.6666667,272.970092 62.6666667,291.174032 52,308.611822 C41.3333333,326.049611 41.3333333,347.845671 52,374" id="Path-3-Copy-21" stroke="#000000" stroke-width="2"></path>
                <path d="M51,373 C56.0469173,386.936816 58.3647588,397.270149 57.9535245,404" id="Path-3-Copy-20" stroke="#000000" stroke-width="2"></path>
                <path d="M59,13 C69.6666667,32.1281759 69.6666667,50.4838161 59,68.0669205 C48.3333333,85.6500249 48.3333333,107.627718 59,134" id="Path-3-Copy-27" stroke="#000000" stroke-width="2"></path>
                <path d="M59,134 C69.6666667,152.970092 69.6666667,171.174032 59,188.611822 C48.3333333,206.049611 48.3333333,227.845671 59,254" id="Path-3-Copy-26" stroke="#000000" stroke-width="2"></path>
                <path d="M59,254 C69.6666667,272.970092 69.6666667,291.174032 59,308.611822 C48.3333333,326.049611 48.3333333,347.845671 59,374" id="Path-3-Copy-25" stroke="#000000" stroke-width="2"></path>
                <path d="M58,373 C63.0469173,386.936816 65.3647588,397.270149 64.9535245,404" id="Path-3-Copy-24" stroke="#000000" stroke-width="2"></path>
                <path d="M66,13 C76.6666667,32.1281759 76.6666667,50.4838161 66,68.0669205 C55.3333333,85.6500249 55.3333333,107.627718 66,134" id="Path-3-Copy-31" stroke="#000000" stroke-width="2"></path>
                <path d="M66,134 C76.6666667,152.970092 76.6666667,171.174032 66,188.611822 C55.3333333,206.049611 55.3333333,227.845671 66,254" id="Path-3-Copy-30" stroke="#000000" stroke-width="2"></path>
                <path d="M66,254 C76.6666667,272.970092 76.6666667,291.174032 66,308.611822 C55.3333333,326.049611 55.3333333,347.845671 66,374" id="Path-3-Copy-29" stroke="#000000" stroke-width="2"></path>
                <path d="M65,373 C70.0469173,386.936816 72.3647588,397.270149 71.9535245,404" id="Path-3-Copy-28" stroke="#000000" stroke-width="2"></path>
                <path d="M73,13 C83.6666667,32.1281759 83.6666667,50.4838161 73,68.0669205 C62.3333333,85.6500249 62.3333333,107.627718 73,134" id="Path-3-Copy-35" stroke="#000000" stroke-width="2"></path>
                <path d="M73,134 C83.6666667,152.970092 83.6666667,171.174032 73,188.611822 C62.3333333,206.049611 62.3333333,227.845671 73,254" id="Path-3-Copy-34" stroke="#000000" stroke-width="2"></path>
                <path d="M73,254 C83.6666667,272.970092 83.6666667,291.174032 73,308.611822 C62.3333333,326.049611 62.3333333,347.845671 73,374" id="Path-3-Copy-33" stroke="#000000" stroke-width="2"></path>
                <path d="M74,373 C79.0469173,386.936816 81.3647588,397.270149 80.9535245,404" id="Path-3-Copy-32" stroke="#000000" stroke-width="2"></path>
                <path d="M82,13 C92.6666667,32.1281759 92.6666667,50.4838161 82,68.0669205 C71.3333333,85.6500249 71.3333333,107.627718 82,134" id="Path-3-Copy-39" stroke="#000000" stroke-width="2"></path>
                <path d="M82,134 C92.6666667,152.970092 92.6666667,171.174032 82,188.611822 C71.3333333,206.049611 71.3333333,227.845671 82,254" id="Path-3-Copy-38" stroke="#000000" stroke-width="2"></path>
                <path d="M82,254 C92.6666667,272.970092 92.6666667,291.174032 82,308.611822 C71.3333333,326.049611 71.3333333,347.845671 82,374" id="Path-3-Copy-37" stroke="#000000" stroke-width="2"></path>
                <path d="M81,373 C86.0469173,386.936816 88.3647588,397.270149 87.9535245,404" id="Path-3-Copy-36" stroke="#000000" stroke-width="2"></path>
                <path d="M89,13 C99.6666667,32.1281759 99.6666667,50.4838161 89,68.0669205 C78.3333333,85.6500249 78.3333333,107.627718 89,134" id="Path-3-Copy-43" stroke="#000000" stroke-width="2"></path>
                <path d="M89,134 C99.6666667,152.970092 99.6666667,171.174032 89,188.611822 C78.3333333,206.049611 78.3333333,227.845671 89,254" id="Path-3-Copy-42" stroke="#000000" stroke-width="2"></path>
                <path d="M89,254 C99.6666667,272.970092 99.6666667,291.174032 89,308.611822 C78.3333333,326.049611 78.3333333,347.845671 89,374" id="Path-3-Copy-41" stroke="#000000" stroke-width="2"></path>
                <path d="M88,373 C93.0469173,386.936816 95.3647588,397.270149 94.9535245,404" id="Path-3-Copy-40" stroke="#000000" stroke-width="2"></path>
                <path d="M96,13 C106.666667,32.1281759 106.666667,50.4838161 96,68.0669205 C85.3333333,85.6500249 85.3333333,107.627718 96,134" id="Path-3-Copy-47" stroke="#000000" stroke-width="2"></path>
                <path d="M96,134 C106.666667,152.970092 106.666667,171.174032 96,188.611822 C85.3333333,206.049611 85.3333333,227.845671 96,254" id="Path-3-Copy-46" stroke="#000000" stroke-width="2"></path>
                <path d="M96,254 C106.666667,272.970092 106.666667,291.174032 96,308.611822 C85.3333333,326.049611 85.3333333,347.845671 96,374" id="Path-3-Copy-45" stroke="#000000" stroke-width="2"></path>
                <path d="M95,373 C100.046917,386.936816 102.364759,397.270149 101.953524,404" id="Path-3-Copy-44" stroke="#000000" stroke-width="2"></path>
                <path d="M103,13 C113.666667,32.1281759 113.666667,50.4838161 103,68.0669205 C92.3333333,85.6500249 92.3333333,107.627718 103,134" id="Path-3-Copy-51" stroke="#000000" stroke-width="2"></path>
                <path d="M103,134 C113.666667,152.970092 113.666667,171.174032 103,188.611822 C92.3333333,206.049611 92.3333333,227.845671 103,254" id="Path-3-Copy-50" stroke="#000000" stroke-width="2"></path>
                <path d="M103,254 C113.666667,272.970092 113.666667,291.174032 103,308.611822 C92.3333333,326.049611 92.3333333,347.845671 103,374" id="Path-3-Copy-49" stroke="#000000" stroke-width="2"></path>
                <path d="M104,373 C109.046917,386.936816 111.364759,397.270149 110.953524,404" id="Path-3-Copy-48" stroke="#000000" stroke-width="2"></path>
                <path d="M112,13 C122.666667,32.1281759 122.666667,50.4838161 112,68.0669205 C101.333333,85.6500249 101.333333,107.627718 112,134" id="Path-3-Copy-55" stroke="#000000" stroke-width="2"></path>
                <path d="M112,134 C122.666667,152.970092 122.666667,171.174032 112,188.611822 C101.333333,206.049611 101.333333,227.845671 112,254" id="Path-3-Copy-54" stroke="#000000" stroke-width="2"></path>
                <path d="M112,254 C122.666667,272.970092 122.666667,291.174032 112,308.611822 C101.333333,326.049611 101.333333,347.845671 112,374" id="Path-3-Copy-53" stroke="#000000" stroke-width="2"></path>
                <path d="M111,373 C116.046917,386.936816 118.364759,397.270149 117.953524,404" id="Path-3-Copy-52" stroke="#000000" stroke-width="2"></path>
                <path d="M119,13 C129.666667,32.1281759 129.666667,50.4838161 119,68.0669205 C108.333333,85.6500249 108.333333,107.627718 119,134" id="Path-3-Copy-59" stroke="#000000" stroke-width="2"></path>
                <path d="M119,134 C129.666667,152.970092 129.666667,171.174032 119,188.611822 C108.333333,206.049611 108.333333,227.845671 119,254" id="Path-3-Copy-58" stroke="#000000" stroke-width="2"></path>
                <path d="M119,254 C129.666667,272.970092 129.666667,291.174032 119,308.611822 C108.333333,326.049611 108.333333,347.845671 119,374" id="Path-3-Copy-57" stroke="#000000" stroke-width="2"></path>
                <path d="M118,373 C123.046917,386.936816 125.364759,397.270149 124.953524,404" id="Path-3-Copy-56" stroke="#000000" stroke-width="2"></path>
                <path d="M126,13 C136.666667,32.1281759 136.666667,50.4838161 126,68.0669205 C115.333333,85.6500249 115.333333,107.627718 126,134" id="Path-3-Copy-63" stroke="#000000" stroke-width="2"></path>
                <path d="M126,134 C136.666667,152.970092 136.666667,171.174032 126,188.611822 C115.333333,206.049611 115.333333,227.845671 126,254" id="Path-3-Copy-62" stroke="#000000" stroke-width="2"></path>
                <path d="M126,254 C136.666667,272.970092 136.666667,291.174032 126,308.611822 C115.333333,326.049611 115.333333,347.845671 126,374" id="Path-3-Copy-61" stroke="#000000" stroke-width="2"></path>
                <path d="M126,373 C131.046917,386.936816 133.364759,397.270149 132.953524,404" id="Path-3-Copy-60" stroke="#000000" stroke-width="2"></path>
                <path d="M134,13 C144.666667,32.1281759 144.666667,50.4838161 134,68.0669205 C123.333333,85.6500249 123.333333,107.627718 134,134" id="Path-3-Copy-67" stroke="#000000" stroke-width="2"></path>
                <path d="M134,134 C144.666667,152.970092 144.666667,171.174032 134,188.611822 C123.333333,206.049611 123.333333,227.845671 134,254" id="Path-3-Copy-66" stroke="#000000" stroke-width="2"></path>
                <path d="M134,254 C144.666667,272.970092 144.666667,291.174032 134,308.611822 C123.333333,326.049611 123.333333,347.845671 134,374" id="Path-3-Copy-65" stroke="#000000" stroke-width="2"></path>
                <path d="M134,373 C139.046917,386.936816 141.364759,397.270149 140.953524,404" id="Path-3-Copy-64" stroke="#000000" stroke-width="2"></path>
                <path d="M142,13 C152.666667,32.1281759 152.666667,50.4838161 142,68.0669205 C131.333333,85.6500249 131.333333,107.627718 142,134" id="Path-3-Copy-71" stroke="#000000" stroke-width="2"></path>
                <path d="M142,134 C152.666667,152.970092 152.666667,171.174032 142,188.611822 C131.333333,206.049611 131.333333,227.845671 142,254" id="Path-3-Copy-70" stroke="#000000" stroke-width="2"></path>
                <path d="M142,254 C152.666667,272.970092 152.666667,291.174032 142,308.611822 C131.333333,326.049611 131.333333,347.845671 142,374" id="Path-3-Copy-69" stroke="#000000" stroke-width="2"></path>
                <path d="M141,373 C146.046917,386.936816 148.364759,397.270149 147.953524,404" id="Path-3-Copy-68" stroke="#000000" stroke-width="2"></path>
                <path d="M149,13 C159.666667,32.1281759 159.666667,50.4838161 149,68.0669205 C138.333333,85.6500249 138.333333,107.627718 149,134" id="Path-3-Copy-75" stroke="#000000" stroke-width="2"></path>
                <path d="M149,134 C159.666667,152.970092 159.666667,171.174032 149,188.611822 C138.333333,206.049611 138.333333,227.845671 149,254" id="Path-3-Copy-74" stroke="#000000" stroke-width="2"></path>
                <path d="M149,254 C159.666667,272.970092 159.666667,291.174032 149,308.611822 C138.333333,326.049611 138.333333,347.845671 149,374" id="Path-3-Copy-73" stroke="#000000" stroke-width="2"></path>
                <path d="M149,373 C154.046917,386.936816 156.364759,397.270149 155.953524,404" id="Path-3-Copy-72" stroke="#000000" stroke-width="2"></path>
                <path d="M157,13 C167.666667,32.1281759 167.666667,50.4838161 157,68.0669205 C146.333333,85.6500249 146.333333,107.627718 157,134" id="Path-3-Copy-79" stroke="#000000" stroke-width="2"></path>
                <path d="M157,134 C167.666667,152.970092 167.666667,171.174032 157,188.611822 C146.333333,206.049611 146.333333,227.845671 157,254" id="Path-3-Copy-78" stroke="#000000" stroke-width="2"></path>
                <path d="M157,254 C167.666667,272.970092 167.666667,291.174032 157,308.611822 C146.333333,326.049611 146.333333,347.845671 157,374" id="Path-3-Copy-77" stroke="#000000" stroke-width="2"></path>
                <path d="M156,373 C161.046917,386.936816 163.364759,397.270149 162.953524,404" id="Path-3-Copy-76" stroke="#000000" stroke-width="2"></path>
                <path d="M164,13 C174.666667,32.1281759 174.666667,50.4838161 164,68.0669205 C153.333333,85.6500249 153.333333,107.627718 164,134" id="Path-3-Copy-83" stroke="#000000" stroke-width="2"></path>
                <path d="M164,134 C174.666667,152.970092 174.666667,171.174032 164,188.611822 C153.333333,206.049611 153.333333,227.845671 164,254" id="Path-3-Copy-82" stroke="#000000" stroke-width="2"></path>
                <path d="M164,254 C174.666667,272.970092 174.666667,291.174032 164,308.611822 C153.333333,326.049611 153.333333,347.845671 164,374" id="Path-3-Copy-81" stroke="#000000" stroke-width="2"></path>
                <path d="M164,373 C169.046917,386.936816 171.364759,397.270149 170.953524,404" id="Path-3-Copy-80" stroke="#000000" stroke-width="2"></path>
                <path d="M172,13 C182.666667,32.1281759 182.666667,50.4838161 172,68.0669205 C161.333333,85.6500249 161.333333,107.627718 172,134" id="Path-3-Copy-87" stroke="#000000" stroke-width="2"></path>
                <path d="M172,134 C182.666667,152.970092 182.666667,171.174032 172,188.611822 C161.333333,206.049611 161.333333,227.845671 172,254" id="Path-3-Copy-86" stroke="#000000" stroke-width="2"></path>
                <path d="M172,254 C182.666667,272.970092 182.666667,291.174032 172,308.611822 C161.333333,326.049611 161.333333,347.845671 172,374" id="Path-3-Copy-85" stroke="#000000" stroke-width="2"></path>
                <path d="M172,373 C177.046917,386.936816 179.364759,397.270149 178.953524,404" id="Path-3-Copy-84" stroke="#000000" stroke-width="2"></path>
                <path d="M180,13 C190.666667,32.1281759 190.666667,50.4838161 180,68.0669205 C169.333333,85.6500249 169.333333,107.627718 180,134" id="Path-3-Copy-91" stroke="#000000" stroke-width="2"></path>
                <path d="M180,134 C190.666667,152.970092 190.666667,171.174032 180,188.611822 C169.333333,206.049611 169.333333,227.845671 180,254" id="Path-3-Copy-90" stroke="#000000" stroke-width="2"></path>
                <path d="M180,254 C190.666667,272.970092 190.666667,291.174032 180,308.611822 C169.333333,326.049611 169.333333,347.845671 180,374" id="Path-3-Copy-89" stroke="#000000" stroke-width="2"></path>
                <path d="M179,373 C184.046917,386.936816 186.364759,397.270149 185.953524,404" id="Path-3-Copy-88" stroke="#000000" stroke-width="2"></path>
                <path d="M187,13 C197.666667,32.1281759 197.666667,50.4838161 187,68.0669205 C176.333333,85.6500249 176.333333,107.627718 187,134" id="Path-3-Copy-95" stroke="#000000" stroke-width="2"></path>
                <path d="M187,134 C197.666667,152.970092 197.666667,171.174032 187,188.611822 C176.333333,206.049611 176.333333,227.845671 187,254" id="Path-3-Copy-94" stroke="#000000" stroke-width="2"></path>
                <path d="M187,254 C197.666667,272.970092 197.666667,291.174032 187,308.611822 C176.333333,326.049611 176.333333,347.845671 187,374" id="Path-3-Copy-93" stroke="#000000" stroke-width="2"></path>
                <path d="M186,373 C191.046917,386.936816 193.364759,397.270149 192.953524,404" id="Path-3-Copy-92" stroke="#000000" stroke-width="2"></path>
                <path d="M194,13 C204.666667,32.1281759 204.666667,50.4838161 194,68.0669205 C183.333333,85.6500249 183.333333,107.627718 194,134" id="Path-3-Copy-99" stroke="#000000" stroke-width="2"></path>
                <path d="M194,134 C204.666667,152.970092 204.666667,171.174032 194,188.611822 C183.333333,206.049611 183.333333,227.845671 194,254" id="Path-3-Copy-98" stroke="#000000" stroke-width="2"></path>
                <path d="M194,254 C204.666667,272.970092 204.666667,291.174032 194,308.611822 C183.333333,326.049611 183.333333,347.845671 194,374" id="Path-3-Copy-97" stroke="#000000" stroke-width="2"></path>
                <path d="M195,373 C200.046917,386.936816 202.364759,397.270149 201.953524,404" id="Path-3-Copy-96" stroke="#000000" stroke-width="2"></path>
                <path d="M203,13 C213.666667,32.1281759 213.666667,50.4838161 203,68.0669205 C192.333333,85.6500249 192.333333,107.627718 203,134" id="Path-3-Copy-103" stroke="#000000" stroke-width="2"></path>
                <path d="M203,134 C213.666667,152.970092 213.666667,171.174032 203,188.611822 C192.333333,206.049611 192.333333,227.845671 203,254" id="Path-3-Copy-102" stroke="#000000" stroke-width="2"></path>
                <path d="M203,254 C213.666667,272.970092 213.666667,291.174032 203,308.611822 C192.333333,326.049611 192.333333,347.845671 203,374" id="Path-3-Copy-101" stroke="#000000" stroke-width="2"></path>
                <path d="M202,373 C207.046917,386.936816 209.364759,397.270149 208.953524,404" id="Path-3-Copy-100" stroke="#000000" stroke-width="2"></path>
                <path d="M210,13 C220.666667,32.1281759 220.666667,50.4838161 210,68.0669205 C199.333333,85.6500249 199.333333,107.627718 210,134" id="Path-3-Copy-107" stroke="#000000" stroke-width="2"></path>
                <path d="M210,134 C220.666667,152.970092 220.666667,171.174032 210,188.611822 C199.333333,206.049611 199.333333,227.845671 210,254" id="Path-3-Copy-106" stroke="#000000" stroke-width="2"></path>
                <path d="M210,254 C220.666667,272.970092 220.666667,291.174032 210,308.611822 C199.333333,326.049611 199.333333,347.845671 210,374" id="Path-3-Copy-105" stroke="#000000" stroke-width="2"></path>
                <path d="M209,373 C214.046917,386.936816 216.364759,397.270149 215.953524,404" id="Path-3-Copy-104" stroke="#000000" stroke-width="2"></path>
                <path d="M217,13 C227.666667,32.1281759 227.666667,50.4838161 217,68.0669205 C206.333333,85.6500249 206.333333,107.627718 217,134" id="Path-3-Copy-111" stroke="#000000" stroke-width="2"></path>
                <path d="M217,134 C227.666667,152.970092 227.666667,171.174032 217,188.611822 C206.333333,206.049611 206.333333,227.845671 217,254" id="Path-3-Copy-110" stroke="#000000" stroke-width="2"></path>
                <path d="M217,254 C227.666667,272.970092 227.666667,291.174032 217,308.611822 C206.333333,326.049611 206.333333,347.845671 217,374" id="Path-3-Copy-109" stroke="#000000" stroke-width="2"></path>
                <path d="M216,373 C221.046917,386.936816 223.364759,397.270149 222.953524,404" id="Path-3-Copy-108" stroke="#000000" stroke-width="2"></path>
                <path d="M224,13 C234.666667,32.1281759 234.666667,50.4838161 224,68.0669205 C213.333333,85.6500249 213.333333,107.627718 224,134" id="Path-3-Copy-115" stroke="#000000" stroke-width="2"></path>
                <path d="M224,134 C234.666667,152.970092 234.666667,171.174032 224,188.611822 C213.333333,206.049611 213.333333,227.845671 224,254" id="Path-3-Copy-114" stroke="#000000" stroke-width="2"></path>
                <path d="M224,254 C234.666667,272.970092 234.666667,291.174032 224,308.611822 C213.333333,326.049611 213.333333,347.845671 224,374" id="Path-3-Copy-113" stroke="#000000" stroke-width="2"></path>
                <path d="M225,373 C230.046917,386.936816 232.364759,397.270149 231.953524,404" id="Path-3-Copy-112" stroke="#000000" stroke-width="2"></path>
                <path d="M233,13 C243.666667,32.1281759 243.666667,50.4838161 233,68.0669205 C222.333333,85.6500249 222.333333,107.627718 233,134" id="Path-3-Copy-119" stroke="#000000" stroke-width="2"></path>
                <path d="M233,134 C243.666667,152.970092 243.666667,171.174032 233,188.611822 C222.333333,206.049611 222.333333,227.845671 233,254" id="Path-3-Copy-118" stroke="#000000" stroke-width="2"></path>
                <path d="M233,254 C243.666667,272.970092 243.666667,291.174032 233,308.611822 C222.333333,326.049611 222.333333,347.845671 233,374" id="Path-3-Copy-117" stroke="#000000" stroke-width="2"></path>
                <path d="M232,373 C237.046917,386.936816 239.364759,397.270149 238.953524,404" id="Path-3-Copy-116" stroke="#000000" stroke-width="2"></path>
                <path d="M240,13 C250.666667,32.1281759 250.666667,50.4838161 240,68.0669205 C229.333333,85.6500249 229.333333,107.627718 240,134" id="Path-3-Copy-123" stroke="#000000" stroke-width="2"></path>
                <path d="M240,134 C250.666667,152.970092 250.666667,171.174032 240,188.611822 C229.333333,206.049611 229.333333,227.845671 240,254" id="Path-3-Copy-122" stroke="#000000" stroke-width="2"></path>
                <path d="M240,254 C250.666667,272.970092 250.666667,291.174032 240,308.611822 C229.333333,326.049611 229.333333,347.845671 240,374" id="Path-3-Copy-121" stroke="#000000" stroke-width="2"></path>
                <path d="M239,373 C244.046917,386.936816 246.364759,397.270149 245.953524,404" id="Path-3-Copy-120" stroke="#000000" stroke-width="2"></path>
                <path d="M247,13 C257.666667,32.1281759 257.666667,50.4838161 247,68.0669205 C236.333333,85.6500249 236.333333,107.627718 247,134" id="Path-3-Copy-127" stroke="#000000" stroke-width="2"></path>
                <path d="M247,134 C257.666667,152.970092 257.666667,171.174032 247,188.611822 C236.333333,206.049611 236.333333,227.845671 247,254" id="Path-3-Copy-126" stroke="#000000" stroke-width="2"></path>
                <path d="M247,254 C257.666667,272.970092 257.666667,291.174032 247,308.611822 C236.333333,326.049611 236.333333,347.845671 247,374" id="Path-3-Copy-125" stroke="#000000" stroke-width="2"></path>
                <path d="M247,373 C252.046917,386.936816 254.364759,397.270149 253.953524,404" id="Path-3-Copy-124" stroke="#000000" stroke-width="2"></path>
                <path d="M255,13 C265.666667,32.1281759 265.666667,50.4838161 255,68.0669205 C244.333333,85.6500249 244.333333,107.627718 255,134" id="Path-3-Copy-131" stroke="#000000" stroke-width="2"></path>
                <path d="M255,134 C265.666667,152.970092 265.666667,171.174032 255,188.611822 C244.333333,206.049611 244.333333,227.845671 255,254" id="Path-3-Copy-130" stroke="#000000" stroke-width="2"></path>
                <path d="M255,254 C265.666667,272.970092 265.666667,291.174032 255,308.611822 C244.333333,326.049611 244.333333,347.845671 255,374" id="Path-3-Copy-129" stroke="#000000" stroke-width="2"></path>
                <path d="M255,373 C260.046917,386.936816 262.364759,397.270149 261.953524,404" id="Path-3-Copy-128" stroke="#000000" stroke-width="2"></path>
                <path d="M263,13 C273.666667,32.1281759 273.666667,50.4838161 263,68.0669205 C252.333333,85.6500249 252.333333,107.627718 263,134" id="Path-3-Copy-135" stroke="#000000" stroke-width="2"></path>
                <path d="M263,134 C273.666667,152.970092 273.666667,171.174032 263,188.611822 C252.333333,206.049611 252.333333,227.845671 263,254" id="Path-3-Copy-134" stroke="#000000" stroke-width="2"></path>
                <path d="M263,254 C273.666667,272.970092 273.666667,291.174032 263,308.611822 C252.333333,326.049611 252.333333,347.845671 263,374" id="Path-3-Copy-133" stroke="#000000" stroke-width="2"></path>
                <path d="M262,373 C267.046917,386.936816 269.364759,397.270149 268.953524,404" id="Path-3-Copy-132" stroke="#000000" stroke-width="2"></path>
                <path d="M270,13 C280.666667,32.1281759 280.666667,50.4838161 270,68.0669205 C259.333333,85.6500249 259.333333,107.627718 270,134" id="Path-3-Copy-139" stroke="#000000" stroke-width="2"></path>
                <path d="M270,134 C280.666667,152.970092 280.666667,171.174032 270,188.611822 C259.333333,206.049611 259.333333,227.845671 270,254" id="Path-3-Copy-138" stroke="#000000" stroke-width="2"></path>
                <path d="M270,254 C280.666667,272.970092 280.666667,291.174032 270,308.611822 C259.333333,326.049611 259.333333,347.845671 270,374" id="Path-3-Copy-137" stroke="#000000" stroke-width="2"></path>
                <path d="M270,373 C275.046917,386.936816 277.364759,397.270149 276.953524,404" id="Path-3-Copy-136" stroke="#000000" stroke-width="2"></path>
                <path d="M278,13 C288.666667,32.1281759 288.666667,50.4838161 278,68.0669205 C267.333333,85.6500249 267.333333,107.627718 278,134" id="Path-3-Copy-143" stroke="#000000" stroke-width="2"></path>
                <path d="M278,134 C288.666667,152.970092 288.666667,171.174032 278,188.611822 C267.333333,206.049611 267.333333,227.845671 278,254" id="Path-3-Copy-142" stroke="#000000" stroke-width="2"></path>
                <path d="M278,254 C288.666667,272.970092 288.666667,291.174032 278,308.611822 C267.333333,326.049611 267.333333,347.845671 278,374" id="Path-3-Copy-141" stroke="#000000" stroke-width="2"></path>
                <path d="M277,373 C282.046917,386.936816 284.364759,397.270149 283.953524,404" id="Path-3-Copy-140" stroke="#000000" stroke-width="2"></path>
                <path d="M285,13 C295.666667,32.1281759 295.666667,50.4838161 285,68.0669205 C274.333333,85.6500249 274.333333,107.627718 285,134" id="Path-3-Copy-147" stroke="#000000" stroke-width="2"></path>
                <path d="M285,134 C295.666667,152.970092 295.666667,171.174032 285,188.611822 C274.333333,206.049611 274.333333,227.845671 285,254" id="Path-3-Copy-146" stroke="#000000" stroke-width="2"></path>
                <path d="M285,254 C295.666667,272.970092 295.666667,291.174032 285,308.611822 C274.333333,326.049611 274.333333,347.845671 285,374" id="Path-3-Copy-145" stroke="#000000" stroke-width="2"></path>
                <path d="M285,373 C290.046917,386.936816 292.364759,397.270149 291.953524,404" id="Path-3-Copy-144" stroke="#000000" stroke-width="2"></path>
                <path d="M293,13 C303.666667,32.1281759 303.666667,50.4838161 293,68.0669205 C282.333333,85.6500249 282.333333,107.627718 293,134" id="Path-3-Copy-151" stroke="#000000" stroke-width="2"></path>
                <path d="M293,134 C303.666667,152.970092 303.666667,171.174032 293,188.611822 C282.333333,206.049611 282.333333,227.845671 293,254" id="Path-3-Copy-150" stroke="#000000" stroke-width="2"></path>
                <path d="M293,254 C303.666667,272.970092 303.666667,291.174032 293,308.611822 C282.333333,326.049611 282.333333,347.845671 293,374" id="Path-3-Copy-149" stroke="#000000" stroke-width="2"></path>
                <path d="M292,373 C297.046917,386.936816 299.364759,397.270149 298.953524,404" id="Path-3-Copy-148" stroke="#000000" stroke-width="2"></path>
                <path d="M300,13 C310.666667,32.1281759 310.666667,50.4838161 300,68.0669205 C289.333333,85.6500249 289.333333,107.627718 300,134" id="Path-3-Copy-155" stroke="#000000" stroke-width="2"></path>
                <path d="M300,134 C310.666667,152.970092 310.666667,171.174032 300,188.611822 C289.333333,206.049611 289.333333,227.845671 300,254" id="Path-3-Copy-154" stroke="#000000" stroke-width="2"></path>
                <path d="M300,254 C310.666667,272.970092 310.666667,291.174032 300,308.611822 C289.333333,326.049611 289.333333,347.845671 300,374" id="Path-3-Copy-153" stroke="#000000" stroke-width="2"></path>
                <path d="M300,373 C305.046917,386.936816 307.364759,397.270149 306.953524,404" id="Path-3-Copy-152" stroke="#000000" stroke-width="2"></path>
                <path d="M308,13 C318.666667,32.1281759 318.666667,50.4838161 308,68.0669205 C297.333333,85.6500249 297.333333,107.627718 308,134" id="Path-3-Copy-159" stroke="#000000" stroke-width="2"></path>
                <path d="M308,134 C318.666667,152.970092 318.666667,171.174032 308,188.611822 C297.333333,206.049611 297.333333,227.845671 308,254" id="Path-3-Copy-158" stroke="#000000" stroke-width="2"></path>
                <path d="M308,254 C318.666667,272.970092 318.666667,291.174032 308,308.611822 C297.333333,326.049611 297.333333,347.845671 308,374" id="Path-3-Copy-157" stroke="#000000" stroke-width="2"></path>
                <path d="M307,373 C312.046917,386.936816 314.364759,397.270149 313.953524,404" id="Path-3-Copy-156" stroke="#000000" stroke-width="2"></path>
                <path d="M315,13 C325.666667,32.1281759 325.666667,50.4838161 315,68.0669205 C304.333333,85.6500249 304.333333,107.627718 315,134" id="Path-3-Copy-163" stroke="#000000" stroke-width="2"></path>
                <path d="M315,134 C325.666667,152.970092 325.666667,171.174032 315,188.611822 C304.333333,206.049611 304.333333,227.845671 315,254" id="Path-3-Copy-162" stroke="#000000" stroke-width="2"></path>
                <path d="M315,254 C325.666667,272.970092 325.666667,291.174032 315,308.611822 C304.333333,326.049611 304.333333,347.845671 315,374" id="Path-3-Copy-161" stroke="#000000" stroke-width="2"></path>
                <path d="M315,373 C320.046917,386.936816 322.364759,397.270149 321.953524,404" id="Path-3-Copy-160" stroke="#000000" stroke-width="2"></path>
                <path d="M323,13 C333.666667,32.1281759 333.666667,50.4838161 323,68.0669205 C312.333333,85.6500249 312.333333,107.627718 323,134" id="Path-3-Copy-167" stroke="#000000" stroke-width="2"></path>
                <path d="M323,134 C333.666667,152.970092 333.666667,171.174032 323,188.611822 C312.333333,206.049611 312.333333,227.845671 323,254" id="Path-3-Copy-166" stroke="#000000" stroke-width="2"></path>
                <path d="M323,254 C333.666667,272.970092 333.666667,291.174032 323,308.611822 C312.333333,326.049611 312.333333,347.845671 323,374" id="Path-3-Copy-165" stroke="#000000" stroke-width="2"></path>
                <path d="M323,373 C328.046917,386.936816 330.364759,397.270149 329.953524,404" id="Path-3-Copy-164" stroke="#000000" stroke-width="2"></path>
                <path d="M331,13 C341.666667,32.1281759 341.666667,50.4838161 331,68.0669205 C320.333333,85.6500249 320.333333,107.627718 331,134" id="Path-3-Copy-171" stroke="#000000" stroke-width="2"></path>
                <path d="M331,134 C341.666667,152.970092 341.666667,171.174032 331,188.611822 C320.333333,206.049611 320.333333,227.845671 331,254" id="Path-3-Copy-170" stroke="#000000" stroke-width="2"></path>
                <path d="M331,254 C341.666667,272.970092 341.666667,291.174032 331,308.611822 C320.333333,326.049611 320.333333,347.845671 331,374" id="Path-3-Copy-169" stroke="#000000" stroke-width="2"></path>
                <path d="M330,373 C335.046917,386.936816 337.364759,397.270149 336.953524,404" id="Path-3-Copy-168" stroke="#000000" stroke-width="2"></path>
                <path d="M338,13 C348.666667,32.1281759 348.666667,50.4838161 338,68.0669205 C327.333333,85.6500249 327.333333,107.627718 338,134" id="Path-3-Copy-175" stroke="#000000" stroke-width="2"></path>
                <path d="M338,134 C348.666667,152.970092 348.666667,171.174032 338,188.611822 C327.333333,206.049611 327.333333,227.845671 338,254" id="Path-3-Copy-174" stroke="#000000" stroke-width="2"></path>
                <path d="M338,254 C348.666667,272.970092 348.666667,291.174032 338,308.611822 C327.333333,326.049611 327.333333,347.845671 338,374" id="Path-3-Copy-173" stroke="#000000" stroke-width="2"></path>
                <path d="M337,373 C342.046917,386.936816 344.364759,397.270149 343.953524,404" id="Path-3-Copy-172" stroke="#000000" stroke-width="2"></path>
                <path d="M345,13 C355.666667,32.1281759 355.666667,50.4838161 345,68.0669205 C334.333333,85.6500249 334.333333,107.627718 345,134" id="Path-3-Copy-179" stroke="#000000" stroke-width="2"></path>
                <path d="M345,134 C355.666667,152.970092 355.666667,171.174032 345,188.611822 C334.333333,206.049611 334.333333,227.845671 345,254" id="Path-3-Copy-178" stroke="#000000" stroke-width="2"></path>
                <path d="M345,254 C355.666667,272.970092 355.666667,291.174032 345,308.611822 C334.333333,326.049611 334.333333,347.845671 345,374" id="Path-3-Copy-177" stroke="#000000" stroke-width="2"></path>
                <path d="M346,373 C351.046917,386.936816 353.364759,397.270149 352.953524,404" id="Path-3-Copy-176" stroke="#000000" stroke-width="2"></path>
                <path d="M354,13 C364.666667,32.1281759 364.666667,50.4838161 354,68.0669205 C343.333333,85.6500249 343.333333,107.627718 354,134" id="Path-3-Copy-183" stroke="#000000" stroke-width="2"></path>
                <path d="M354,134 C364.666667,152.970092 364.666667,171.174032 354,188.611822 C343.333333,206.049611 343.333333,227.845671 354,254" id="Path-3-Copy-182" stroke="#000000" stroke-width="2"></path>
                <path d="M354,254 C364.666667,272.970092 364.666667,291.174032 354,308.611822 C343.333333,326.049611 343.333333,347.845671 354,374" id="Path-3-Copy-181" stroke="#000000" stroke-width="2"></path>
                <path d="M353,373 C358.046917,386.936816 360.364759,397.270149 359.953524,404" id="Path-3-Copy-180" stroke="#000000" stroke-width="2"></path>
                <path d="M361,13 C371.666667,32.1281759 371.666667,50.4838161 361,68.0669205 C350.333333,85.6500249 350.333333,107.627718 361,134" id="Path-3-Copy-187" stroke="#000000" stroke-width="2"></path>
                <path d="M361,134 C371.666667,152.970092 371.666667,171.174032 361,188.611822 C350.333333,206.049611 350.333333,227.845671 361,254" id="Path-3-Copy-186" stroke="#000000" stroke-width="2"></path>
                <path d="M361,254 C371.666667,272.970092 371.666667,291.174032 361,308.611822 C350.333333,326.049611 350.333333,347.845671 361,374" id="Path-3-Copy-185" stroke="#000000" stroke-width="2"></path>
                <path d="M360,373 C365.046917,386.936816 367.364759,397.270149 366.953524,404" id="Path-3-Copy-184" stroke="#000000" stroke-width="2"></path>
                <path d="M368,13 C378.666667,32.1281759 378.666667,50.4838161 368,68.0669205 C357.333333,85.6500249 357.333333,107.627718 368,134" id="Path-3-Copy-191" stroke="#000000" stroke-width="2"></path>
                <path d="M368,134 C378.666667,152.970092 378.666667,171.174032 368,188.611822 C357.333333,206.049611 357.333333,227.845671 368,254" id="Path-3-Copy-190" stroke="#000000" stroke-width="2"></path>
                <path d="M368,254 C378.666667,272.970092 378.666667,291.174032 368,308.611822 C357.333333,326.049611 357.333333,347.845671 368,374" id="Path-3-Copy-189" stroke="#000000" stroke-width="2"></path>
                <path d="M367,373 C372.046917,386.936816 374.364759,397.270149 373.953524,404" id="Path-3-Copy-188" stroke="#000000" stroke-width="2"></path>
                <path d="M375,13 C385.666667,32.1281759 385.666667,50.4838161 375,68.0669205 C364.333333,85.6500249 364.333333,107.627718 375,134" id="Path-3-Copy-195" stroke="#000000" stroke-width="2"></path>
                <path d="M375,134 C385.666667,152.970092 385.666667,171.174032 375,188.611822 C364.333333,206.049611 364.333333,227.845671 375,254" id="Path-3-Copy-194" stroke="#000000" stroke-width="2"></path>
                <path d="M375,254 C385.666667,272.970092 385.666667,291.174032 375,308.611822 C364.333333,326.049611 364.333333,347.845671 375,374" id="Path-3-Copy-193" stroke="#000000" stroke-width="2"></path>
                <path d="M376,373 C381.046917,386.936816 383.364759,397.270149 382.953524,404" id="Path-3-Copy-192" stroke="#000000" stroke-width="2"></path>
                <path d="M384,13 C394.666667,32.1281759 394.666667,50.4838161 384,68.0669205 C373.333333,85.6500249 373.333333,107.627718 384,134" id="Path-3-Copy-199" stroke="#000000" stroke-width="2"></path>
                <path d="M384,134 C394.666667,152.970092 394.666667,171.174032 384,188.611822 C373.333333,206.049611 373.333333,227.845671 384,254" id="Path-3-Copy-198" stroke="#000000" stroke-width="2"></path>
                <path d="M384,254 C394.666667,272.970092 394.666667,291.174032 384,308.611822 C373.333333,326.049611 373.333333,347.845671 384,374" id="Path-3-Copy-197" stroke="#000000" stroke-width="2"></path>
                <path d="M383,373 C388.046917,386.936816 390.364759,397.270149 389.953524,404" id="Path-3-Copy-196" stroke="#000000" stroke-width="2"></path>
                <path d="M391,13 C401.666667,32.1281759 401.666667,50.4838161 391,68.0669205 C380.333333,85.6500249 380.333333,107.627718 391,134" id="Path-3-Copy-203" stroke="#000000" stroke-width="2"></path>
                <path d="M391,134 C401.666667,152.970092 401.666667,171.174032 391,188.611822 C380.333333,206.049611 380.333333,227.845671 391,254" id="Path-3-Copy-202" stroke="#000000" stroke-width="2"></path>
                <path d="M391,254 C401.666667,272.970092 401.666667,291.174032 391,308.611822 C380.333333,326.049611 380.333333,347.845671 391,374" id="Path-3-Copy-201" stroke="#000000" stroke-width="2"></path>
                <path d="M390,373 C395.046917,386.936816 397.364759,397.270149 396.953524,404" id="Path-3-Copy-200" stroke="#000000" stroke-width="2"></path>
                <path d="M398,13 C408.666667,32.1281759 408.666667,50.4838161 398,68.0669205 C387.333333,85.6500249 387.333333,107.627718 398,134" id="Path-3-Copy-207" stroke="#000000" stroke-width="2"></path>
                <path d="M398,134 C408.666667,152.970092 408.666667,171.174032 398,188.611822 C387.333333,206.049611 387.333333,227.845671 398,254" id="Path-3-Copy-206" stroke="#000000" stroke-width="2"></path>
                <path d="M398,254 C408.666667,272.970092 408.666667,291.174032 398,308.611822 C387.333333,326.049611 387.333333,347.845671 398,374" id="Path-3-Copy-205" stroke="#000000" stroke-width="2"></path>
                <path d="M398,373 C403.046917,386.936816 405.364759,397.270149 404.953524,404" id="Path-3-Copy-204" stroke="#000000" stroke-width="2"></path>
                <path d="M406,13 C416.666667,32.1281759 416.666667,50.4838161 406,68.0669205 C395.333333,85.6500249 395.333333,107.627718 406,134" id="Path-3-Copy-211" stroke="#000000" stroke-width="2"></path>
                <path d="M406,134 C416.666667,152.970092 416.666667,171.174032 406,188.611822 C395.333333,206.049611 395.333333,227.845671 406,254" id="Path-3-Copy-210" stroke="#000000" stroke-width="2"></path>
                <path d="M406,254 C416.666667,272.970092 416.666667,291.174032 406,308.611822 C395.333333,326.049611 395.333333,347.845671 406,374" id="Path-3-Copy-209" stroke="#000000" stroke-width="2"></path>
                <path d="M406,373 C411.046917,386.936816 413.364759,397.270149 412.953524,404" id="Path-3-Copy-208" stroke="#000000" stroke-width="2"></path>
                <path d="M414,13 C424.666667,32.1281759 424.666667,50.4838161 414,68.0669205 C403.333333,85.6500249 403.333333,107.627718 414,134" id="Path-3-Copy-215" stroke="#000000" stroke-width="2"></path>
                <path d="M414,134 C424.666667,152.970092 424.666667,171.174032 414,188.611822 C403.333333,206.049611 403.333333,227.845671 414,254" id="Path-3-Copy-214" stroke="#000000" stroke-width="2"></path>
                <path d="M414,254 C424.666667,272.970092 424.666667,291.174032 414,308.611822 C403.333333,326.049611 403.333333,347.845671 414,374" id="Path-3-Copy-213" stroke="#000000" stroke-width="2"></path>
                <path d="M413,373 C418.046917,386.936816 420.364759,397.270149 419.953524,404" id="Path-3-Copy-212" stroke="#000000" stroke-width="2"></path>
                <path d="M421,13 C431.666667,32.1281759 431.666667,50.4838161 421,68.0669205 C410.333333,85.6500249 410.333333,107.627718 421,134" id="Path-3-Copy-219" stroke="#000000" stroke-width="2"></path>
                <path d="M421,134 C431.666667,152.970092 431.666667,171.174032 421,188.611822 C410.333333,206.049611 410.333333,227.845671 421,254" id="Path-3-Copy-218" stroke="#000000" stroke-width="2"></path>
                <path d="M421,254 C431.666667,272.970092 431.666667,291.174032 421,308.611822 C410.333333,326.049611 410.333333,347.845671 421,374" id="Path-3-Copy-217" stroke="#000000" stroke-width="2"></path>
                <path d="M421,373 C426.046917,386.936816 428.364759,397.270149 427.953524,404" id="Path-3-Copy-216" stroke="#000000" stroke-width="2"></path>
                <path d="M429,13 C439.666667,32.1281759 439.666667,50.4838161 429,68.0669205 C418.333333,85.6500249 418.333333,107.627718 429,134" id="Path-3-Copy-223" stroke="#000000" stroke-width="2"></path>
                <path d="M429,134 C439.666667,152.970092 439.666667,171.174032 429,188.611822 C418.333333,206.049611 418.333333,227.845671 429,254" id="Path-3-Copy-222" stroke="#000000" stroke-width="2"></path>
                <path d="M429,254 C439.666667,272.970092 439.666667,291.174032 429,308.611822 C418.333333,326.049611 418.333333,347.845671 429,374" id="Path-3-Copy-221" stroke="#000000" stroke-width="2"></path>
                <path d="M428,373 C433.046917,386.936816 435.364759,397.270149 434.953524,404" id="Path-3-Copy-220" stroke="#000000" stroke-width="2"></path>
                <path d="M436,13 C446.666667,32.1281759 446.666667,50.4838161 436,68.0669205 C425.333333,85.6500249 425.333333,107.627718 436,134" id="Path-3-Copy-227" stroke="#000000" stroke-width="2"></path>
                <path d="M436,134 C446.666667,152.970092 446.666667,171.174032 436,188.611822 C425.333333,206.049611 425.333333,227.845671 436,254" id="Path-3-Copy-226" stroke="#000000" stroke-width="2"></path>
                <path d="M436,254 C446.666667,272.970092 446.666667,291.174032 436,308.611822 C425.333333,326.049611 425.333333,347.845671 436,374" id="Path-3-Copy-225" stroke="#000000" stroke-width="2"></path>
                <path d="M436,373 C441.046917,386.936816 443.364759,397.270149 442.953524,404" id="Path-3-Copy-224" stroke="#000000" stroke-width="2"></path>
                <path d="M444,13 C454.666667,32.1281759 454.666667,50.4838161 444,68.0669205 C433.333333,85.6500249 433.333333,107.627718 444,134" id="Path-3-Copy-231" stroke="#000000" stroke-width="2"></path>
                <path d="M444,134 C454.666667,152.970092 454.666667,171.174032 444,188.611822 C433.333333,206.049611 433.333333,227.845671 444,254" id="Path-3-Copy-230" stroke="#000000" stroke-width="2"></path>
                <path d="M444,254 C454.666667,272.970092 454.666667,291.174032 444,308.611822 C433.333333,326.049611 433.333333,347.845671 444,374" id="Path-3-Copy-229" stroke="#000000" stroke-width="2"></path>
                <path d="M444,373 C449.046917,386.936816 451.364759,397.270149 450.953524,404" id="Path-3-Copy-228" stroke="#000000" stroke-width="2"></path>
                <path d="M452,13 C462.666667,32.1281759 462.666667,50.4838161 452,68.0669205 C441.333333,85.6500249 441.333333,107.627718 452,134" id="Path-3-Copy-235" stroke="#000000" stroke-width="2"></path>
                <path d="M452,134 C462.666667,152.970092 462.666667,171.174032 452,188.611822 C441.333333,206.049611 441.333333,227.845671 452,254" id="Path-3-Copy-234" stroke="#000000" stroke-width="2"></path>
                <path d="M452,254 C462.666667,272.970092 462.666667,291.174032 452,308.611822 C441.333333,326.049611 441.333333,347.845671 452,374" id="Path-3-Copy-233" stroke="#000000" stroke-width="2"></path>
                <path d="M451,373 C456.046917,386.936816 458.364759,397.270149 457.953524,404" id="Path-3-Copy-232" stroke="#000000" stroke-width="2"></path>
                <path d="M459,13 C469.666667,32.1281759 469.666667,50.4838161 459,68.0669205 C448.333333,85.6500249 448.333333,107.627718 459,134" id="Path-3-Copy-239" stroke="#000000" stroke-width="2"></path>
                <path d="M459,134 C469.666667,152.970092 469.666667,171.174032 459,188.611822 C448.333333,206.049611 448.333333,227.845671 459,254" id="Path-3-Copy-238" stroke="#000000" stroke-width="2"></path>
                <path d="M459,254 C469.666667,272.970092 469.666667,291.174032 459,308.611822 C448.333333,326.049611 448.333333,347.845671 459,374" id="Path-3-Copy-237" stroke="#000000" stroke-width="2"></path>
                <path d="M458,373 C463.046917,386.936816 465.364759,397.270149 464.953524,404" id="Path-3-Copy-236" stroke="#000000" stroke-width="2"></path>
                <path d="M466,13 C476.666667,32.1281759 476.666667,50.4838161 466,68.0669205 C455.333333,85.6500249 455.333333,107.627718 466,134" id="Path-3-Copy-243" stroke="#000000" stroke-width="2"></path>
                <path d="M466,134 C476.666667,152.970092 476.666667,171.174032 466,188.611822 C455.333333,206.049611 455.333333,227.845671 466,254" id="Path-3-Copy-242" stroke="#000000" stroke-width="2"></path>
                <path d="M466,254 C476.666667,272.970092 476.666667,291.174032 466,308.611822 C455.333333,326.049611 455.333333,347.845671 466,374" id="Path-3-Copy-241" stroke="#000000" stroke-width="2"></path>
                <path d="M467,373 C472.046917,386.936816 474.364759,397.270149 473.953524,404" id="Path-3-Copy-240" stroke="#000000" stroke-width="2"></path>
                <path d="M475,13 C485.666667,32.1281759 485.666667,50.4838161 475,68.0669205 C464.333333,85.6500249 464.333333,107.627718 475,134" id="Path-3-Copy-247" stroke="#000000" stroke-width="2"></path>
                <path d="M475,134 C485.666667,152.970092 485.666667,171.174032 475,188.611822 C464.333333,206.049611 464.333333,227.845671 475,254" id="Path-3-Copy-246" stroke="#000000" stroke-width="2"></path>
                <path d="M475,254 C485.666667,272.970092 485.666667,291.174032 475,308.611822 C464.333333,326.049611 464.333333,347.845671 475,374" id="Path-3-Copy-245" stroke="#000000" stroke-width="2"></path>
                <path d="M474,373 C479.046917,386.936816 481.364759,397.270149 480.953524,404" id="Path-3-Copy-244" stroke="#000000" stroke-width="2"></path>
                <path d="M482,13 C492.666667,32.1281759 492.666667,50.4838161 482,68.0669205 C471.333333,85.6500249 471.333333,107.627718 482,134" id="Path-3-Copy-251" stroke="#000000" stroke-width="2"></path>
                <path d="M482,134 C492.666667,152.970092 492.666667,171.174032 482,188.611822 C471.333333,206.049611 471.333333,227.845671 482,254" id="Path-3-Copy-250" stroke="#000000" stroke-width="2"></path>
                <path d="M482,254 C492.666667,272.970092 492.666667,291.174032 482,308.611822 C471.333333,326.049611 471.333333,347.845671 482,374" id="Path-3-Copy-249" stroke="#000000" stroke-width="2"></path>
                <path d="M481,373 C486.046917,386.936816 488.364759,397.270149 487.953524,404" id="Path-3-Copy-248" stroke="#000000" stroke-width="2"></path>
                <path d="M489,13 C499.666667,32.1281759 499.666667,50.4838161 489,68.0669205 C478.333333,85.6500249 478.333333,107.627718 489,134" id="Path-3-Copy-255" stroke="#000000" stroke-width="2"></path>
                <path d="M489,134 C499.666667,152.970092 499.666667,171.174032 489,188.611822 C478.333333,206.049611 478.333333,227.845671 489,254" id="Path-3-Copy-254" stroke="#000000" stroke-width="2"></path>
                <path d="M489,254 C499.666667,272.970092 499.666667,291.174032 489,308.611822 C478.333333,326.049611 478.333333,347.845671 489,374" id="Path-3-Copy-253" stroke="#000000" stroke-width="2"></path>
                <path d="M488,373 C493.046917,386.936816 495.364759,397.270149 494.953524,404" id="Path-3-Copy-252" stroke="#000000" stroke-width="2"></path>
                <path d="M496,13 C506.666667,32.1281759 506.666667,50.4838161 496,68.0669205 C485.333333,85.6500249 485.333333,107.627718 496,134" id="Path-3-Copy-259" stroke="#000000" stroke-width="2"></path>
                <path d="M496,134 C506.666667,152.970092 506.666667,171.174032 496,188.611822 C485.333333,206.049611 485.333333,227.845671 496,254" id="Path-3-Copy-258" stroke="#000000" stroke-width="2"></path>
                <path d="M496,254 C506.666667,272.970092 506.666667,291.174032 496,308.611822 C485.333333,326.049611 485.333333,347.845671 496,374" id="Path-3-Copy-257" stroke="#000000" stroke-width="2"></path>
                <path d="M497,373 C502.046917,386.936816 504.364759,397.270149 503.953524,404" id="Path-3-Copy-256" stroke="#000000" stroke-width="2"></path>
                <path d="M505,13 C515.666667,32.1281759 515.666667,50.4838161 505,68.0669205 C494.333333,85.6500249 494.333333,107.627718 505,134" id="Path-3-Copy-263" stroke="#000000" stroke-width="2"></path>
                <path d="M505,134 C515.666667,152.970092 515.666667,171.174032 505,188.611822 C494.333333,206.049611 494.333333,227.845671 505,254" id="Path-3-Copy-262" stroke="#000000" stroke-width="2"></path>
                <path d="M505,254 C515.666667,272.970092 515.666667,291.174032 505,308.611822 C494.333333,326.049611 494.333333,347.845671 505,374" id="Path-3-Copy-261" stroke="#000000" stroke-width="2"></path>
                <path d="M504,373 C509.046917,386.936816 511.364759,397.270149 510.953524,404" id="Path-3-Copy-260" stroke="#000000" stroke-width="2"></path>
                <path d="M512,13 C522.666667,32.1281759 522.666667,50.4838161 512,68.0669205 C501.333333,85.6500249 501.333333,107.627718 512,134" id="Path-3-Copy-267" stroke="#000000" stroke-width="2"></path>
                <path d="M512,134 C522.666667,152.970092 522.666667,171.174032 512,188.611822 C501.333333,206.049611 501.333333,227.845671 512,254" id="Path-3-Copy-266" stroke="#000000" stroke-width="2"></path>
                <path d="M512,254 C522.666667,272.970092 522.666667,291.174032 512,308.611822 C501.333333,326.049611 501.333333,347.845671 512,374" id="Path-3-Copy-265" stroke="#000000" stroke-width="2"></path>
                <path d="M511,373 C516.046917,386.936816 518.364759,397.270149 517.953524,404" id="Path-3-Copy-264" stroke="#000000" stroke-width="2"></path>
                <path d="M519,13 C529.666667,32.1281759 529.666667,50.4838161 519,68.0669205 C508.333333,85.6500249 508.333333,107.627718 519,134" id="Path-3-Copy-271" stroke="#000000" stroke-width="2"></path>
                <path d="M519,134 C529.666667,152.970092 529.666667,171.174032 519,188.611822 C508.333333,206.049611 508.333333,227.845671 519,254" id="Path-3-Copy-270" stroke="#000000" stroke-width="2"></path>
                <path d="M519,254 C529.666667,272.970092 529.666667,291.174032 519,308.611822 C508.333333,326.049611 508.333333,347.845671 519,374" id="Path-3-Copy-269" stroke="#000000" stroke-width="2"></path>
                <path d="M519,373 C524.046917,386.936816 526.364759,397.270149 525.953524,404" id="Path-3-Copy-268" stroke="#000000" stroke-width="2"></path>
                <path d="M527,13 C537.666667,32.1281759 537.666667,50.4838161 527,68.0669205 C516.333333,85.6500249 516.333333,107.627718 527,134" id="Path-3-Copy-275" stroke="#000000" stroke-width="2"></path>
                <path d="M527,134 C537.666667,152.970092 537.666667,171.174032 527,188.611822 C516.333333,206.049611 516.333333,227.845671 527,254" id="Path-3-Copy-274" stroke="#000000" stroke-width="2"></path>
                <path d="M527,254 C537.666667,272.970092 537.666667,291.174032 527,308.611822 C516.333333,326.049611 516.333333,347.845671 527,374" id="Path-3-Copy-273" stroke="#000000" stroke-width="2"></path>
                <path d="M527,373 C532.046917,386.936816 534.364759,397.270149 533.953524,404" id="Path-3-Copy-272" stroke="#000000" stroke-width="2"></path>
                <path d="M535,13 C545.666667,32.1281759 545.666667,50.4838161 535,68.0669205 C524.333333,85.6500249 524.333333,107.627718 535,134" id="Path-3-Copy-279" stroke="#000000" stroke-width="2"></path>
                <path d="M535,134 C545.666667,152.970092 545.666667,171.174032 535,188.611822 C524.333333,206.049611 524.333333,227.845671 535,254" id="Path-3-Copy-278" stroke="#000000" stroke-width="2"></path>
                <path d="M535,254 C545.666667,272.970092 545.666667,291.174032 535,308.611822 C524.333333,326.049611 524.333333,347.845671 535,374" id="Path-3-Copy-277" stroke="#000000" stroke-width="2"></path>
                <path d="M534,373 C539.046917,386.936816 541.364759,397.270149 540.953524,404" id="Path-3-Copy-276" stroke="#000000" stroke-width="2"></path>
                <path d="M542,13 C552.666667,32.1281759 552.666667,50.4838161 542,68.0669205 C531.333333,85.6500249 531.333333,107.627718 542,134" id="Path-3-Copy-283" stroke="#000000" stroke-width="2"></path>
                <path d="M542,134 C552.666667,152.970092 552.666667,171.174032 542,188.611822 C531.333333,206.049611 531.333333,227.845671 542,254" id="Path-3-Copy-282" stroke="#000000" stroke-width="2"></path>
                <path d="M542,254 C552.666667,272.970092 552.666667,291.174032 542,308.611822 C531.333333,326.049611 531.333333,347.845671 542,374" id="Path-3-Copy-281" stroke="#000000" stroke-width="2"></path>
                <path d="M541,373 C546.046917,386.936816 548.364759,397.270149 547.953524,404" id="Path-3-Copy-280" stroke="#000000" stroke-width="2"></path>
                <path d="M549,13 C559.666667,32.1281759 559.666667,50.4838161 549,68.0669205 C538.333333,85.6500249 538.333333,107.627718 549,134" id="Path-3-Copy-287" stroke="#000000" stroke-width="2"></path>
                <path d="M549,134 C559.666667,152.970092 559.666667,171.174032 549,188.611822 C538.333333,206.049611 538.333333,227.845671 549,254" id="Path-3-Copy-286" stroke="#000000" stroke-width="2"></path>
                <path d="M549,254 C559.666667,272.970092 559.666667,291.174032 549,308.611822 C538.333333,326.049611 538.333333,347.845671 549,374" id="Path-3-Copy-285" stroke="#000000" stroke-width="2"></path>
                <path d="M549,373 C554.046917,386.936816 556.364759,397.270149 555.953524,404" id="Path-3-Copy-284" stroke="#000000" stroke-width="2"></path>
                <path d="M557,13 C567.666667,32.1281759 567.666667,50.4838161 557,68.0669205 C546.333333,85.6500249 546.333333,107.627718 557,134" id="Path-3-Copy-291" stroke="#000000" stroke-width="2"></path>
                <path d="M557,134 C567.666667,152.970092 567.666667,171.174032 557,188.611822 C546.333333,206.049611 546.333333,227.845671 557,254" id="Path-3-Copy-290" stroke="#000000" stroke-width="2"></path>
                <path d="M557,254 C567.666667,272.970092 567.666667,291.174032 557,308.611822 C546.333333,326.049611 546.333333,347.845671 557,374" id="Path-3-Copy-289" stroke="#000000" stroke-width="2"></path>
                <path d="M557,373 C562.046917,386.936816 564.364759,397.270149 563.953524,404" id="Path-3-Copy-288" stroke="#000000" stroke-width="2"></path>
                <path d="M565,13 C575.666667,32.1281759 575.666667,50.4838161 565,68.0669205 C554.333333,85.6500249 554.333333,107.627718 565,134" id="Path-3-Copy-295" stroke="#000000" stroke-width="2"></path>
                <path d="M565,134 C575.666667,152.970092 575.666667,171.174032 565,188.611822 C554.333333,206.049611 554.333333,227.845671 565,254" id="Path-3-Copy-294" stroke="#000000" stroke-width="2"></path>
                <path d="M565,254 C575.666667,272.970092 575.666667,291.174032 565,308.611822 C554.333333,326.049611 554.333333,347.845671 565,374" id="Path-3-Copy-293" stroke="#000000" stroke-width="2"></path>
                <path d="M564,373 C569.046917,386.936816 571.364759,397.270149 570.953524,404" id="Path-3-Copy-292" stroke="#000000" stroke-width="2"></path>
                <path d="M572,13 C582.666667,32.1281759 582.666667,50.4838161 572,68.0669205 C561.333333,85.6500249 561.333333,107.627718 572,134" id="Path-3-Copy-299" stroke="#000000" stroke-width="2"></path>
                <path d="M572,134 C582.666667,152.970092 582.666667,171.174032 572,188.611822 C561.333333,206.049611 561.333333,227.845671 572,254" id="Path-3-Copy-298" stroke="#000000" stroke-width="2"></path>
                <path d="M572,254 C582.666667,272.970092 582.666667,291.174032 572,308.611822 C561.333333,326.049611 561.333333,347.845671 572,374" id="Path-3-Copy-297" stroke="#000000" stroke-width="2"></path>
                <path d="M572,373 C577.046917,386.936816 579.364759,397.270149 578.953524,404" id="Path-3-Copy-296" stroke="#000000" stroke-width="2"></path>
                <path d="M580,13 C590.666667,32.1281759 590.666667,50.4838161 580,68.0669205 C569.333333,85.6500249 569.333333,107.627718 580,134" id="Path-3-Copy-303" stroke="#000000" stroke-width="2"></path>
                <path d="M580,134 C590.666667,152.970092 590.666667,171.174032 580,188.611822 C569.333333,206.049611 569.333333,227.845671 580,254" id="Path-3-Copy-302" stroke="#000000" stroke-width="2"></path>
                <path d="M580,254 C590.666667,272.970092 590.666667,291.174032 580,308.611822 C569.333333,326.049611 569.333333,347.845671 580,374" id="Path-3-Copy-301" stroke="#000000" stroke-width="2"></path>
                <path d="M579,373 C584.046917,386.936816 586.364759,397.270149 585.953524,404" id="Path-3-Copy-300" stroke="#000000" stroke-width="2"></path>
                <path d="M587,13 C597.666667,32.1281759 597.666667,50.4838161 587,68.0669205 C576.333333,85.6500249 576.333333,107.627718 587,134" id="Path-3-Copy-307" stroke="#000000" stroke-width="2"></path>
                <path d="M587,134 C597.666667,152.970092 597.666667,171.174032 587,188.611822 C576.333333,206.049611 576.333333,227.845671 587,254" id="Path-3-Copy-306" stroke="#000000" stroke-width="2"></path>
                <path d="M587,254 C597.666667,272.970092 597.666667,291.174032 587,308.611822 C576.333333,326.049611 576.333333,347.845671 587,374" id="Path-3-Copy-305" stroke="#000000" stroke-width="2"></path>
                <path d="M587,373 C592.046917,386.936816 594.364759,397.270149 593.953524,404" id="Path-3-Copy-304" stroke="#000000" stroke-width="2"></path>
                <path d="M595,13 C605.666667,32.1281759 605.666667,50.4838161 595,68.0669205 C584.333333,85.6500249 584.333333,107.627718 595,134" id="Path-3-Copy-311" stroke="#000000" stroke-width="2"></path>
                <path d="M595,134 C605.666667,152.970092 605.666667,171.174032 595,188.611822 C584.333333,206.049611 584.333333,227.845671 595,254" id="Path-3-Copy-310" stroke="#000000" stroke-width="2"></path>
                <path d="M595,254 C605.666667,272.970092 605.666667,291.174032 595,308.611822 C584.333333,326.049611 584.333333,347.845671 595,374" id="Path-3-Copy-309" stroke="#000000" stroke-width="2"></path>
                <path d="M595,373 C600.046917,386.936816 602.364759,397.270149 601.953524,404" id="Path-3-Copy-308" stroke="#000000" stroke-width="2"></path>
                <path d="M603,13 C613.666667,32.1281759 613.666667,50.4838161 603,68.0669205 C592.333333,85.6500249 592.333333,107.627718 603,134" id="Path-3-Copy-315" stroke="#000000" stroke-width="2"></path>
                <path d="M603,134 C613.666667,152.970092 613.666667,171.174032 603,188.611822 C592.333333,206.049611 592.333333,227.845671 603,254" id="Path-3-Copy-314" stroke="#000000" stroke-width="2"></path>
                <path d="M603,254 C613.666667,272.970092 613.666667,291.174032 603,308.611822 C592.333333,326.049611 592.333333,347.845671 603,374" id="Path-3-Copy-313" stroke="#000000" stroke-width="2"></path>
                <path d="M602,373 C607.046917,386.936816 609.364759,397.270149 608.953524,404" id="Path-3-Copy-312" stroke="#000000" stroke-width="2"></path>
                <g id="Group-3" transform="translate(106.000000, 107.000000)">
                    <g id="Group" fill="#FFFFFF" font-family="OpenSans-Light, Open Sans Light" font-weight="normal">
                        <text id="" font-size="150" letter-spacing="10">
                            <tspan x="289.119629" y="160"></tspan>
                            <tspan x="365.989746" y="160"></tspan>
                        </text>
                        <text id="" font-size="140" letter-spacing="4.25806379">
                            <tspan x="9.97643685" y="150"></tspan>
                        </text>
                    </g>
                    <g id="Cam2" transform="translate(133.000000, 34.000000)" stroke="#FFFFFF" stroke-width="12">
                        <path d="M137,68 C137,106.107642 106.331637,137 68.5,137 C30.6685003,137 0,106.107642 0,68" id="Shape"></path>
                        <path d="M137,0 C137,38.107642 106.331637,69 68.5,69 C30.6685003,69 0,38.107642 0,0" id="Shape" transform="translate(68.500000, 34.500000) scale(1, -1) translate(-68.500000, -34.500000) "></path>
                    </g>
                </g>
            </g>
        </g>
    </g>
</svg>