<?xml version="1.0" encoding="UTF-8"?>
<svg width="1440px" height="699px" viewBox="0 0 1440 699" version="1.1" xmlns="http://www.w3.org/2000/svg" xmlns:xlink="http://www.w3.org/1999/xlink">
    <!-- Generator: Sketch 51.2 (57519) - http://www.bohemiancoding.com/sketch -->
    <title>Cover</title>
    <desc>Created with Sketch.</desc>
    <defs></defs>
    <g id="Page-1" stroke="none" stroke-width="1" fill="none" fill-rule="evenodd">
        <g id="Portfolio-Copy-9">
            <g id="Cover" transform="translate(0.000000, -2.000000)">
                <rect id="Rectangle-2" fill="#FFFFFF" x="0" y="0" width="1440" height="696"></rect>
                <ellipse id="Oval-5" stroke="#000000" stroke-width="10" cx="976.5" cy="231.5" rx="119.5" ry="120.5"></ellipse>
                <path d="M308,411.638861 C475.309405,266.716937 624.569916,243.300038 755.781534,341.388164 L927,485.824927 C808.386861,553.896231 720.613455,605.293401 663.679784,640.016438 C606.746112,674.739474 581.209439,693.162938 587.069765,695.286828 L525.463845,695.286828 C461.581947,599.14471 416.65665,534.680464 390.687954,501.89409 C364.719258,469.107715 337.156607,439.022639 308,411.638861 Z" id="Path-8" stroke="#000000" stroke-width="10"></path>
                <path d="M1435,695 L1435,359.536301 C1336.67155,307.278029 1166.24031,350.124077 923.706279,488.074446 C681.17225,626.024815 569.27561,695 588.016358,695 L1435,695 Z" id="Path-9" stroke="#000000" stroke-width="10"></path>
                <path d="M5,347.872265 L5,695 L522,695 C419.238405,523.448823 325.778013,411.816903 241.618823,360.104239 C157.459633,308.391575 78.5866921,304.31425 5,347.872265 Z" id="Path-10" stroke="#000000" stroke-width="10"></path>
                <text id="Daria-Ostrovskaya" font-family="Montserrat-Black, Montserrat Black" font-size="80" font-weight="700" letter-spacing="2.43318" fill="#000000">
                    <tspan x="40.11797" y="82">DARIA OSTROVSKAYA</tspan>
                </text>
                <path d="M986,568 L966.5,524.5" id="Line-4" stroke="#000000" stroke-width="10" stroke-linecap="square"></path>
                <path d="M1111,497 L1091.5,453.5" id="Line-4-Copy" stroke="#000000" stroke-width="10" stroke-linecap="square"></path>
                <path d="M1129,655 L1109.5,611.5" id="Line-4-Copy-2" stroke="#000000" stroke-width="10" stroke-linecap="square"></path>
                <path d="M1355,645 L1335.5,601.5" id="Line-4-Copy-3" stroke="#000000" stroke-width="10" stroke-linecap="square"></path>
                <path d="M1238,557 L1218.5,513.5" id="Line-4-Copy-4" stroke="#000000" stroke-width="10" stroke-linecap="square"></path>
                <path d="M1290,453 L1270.5,409.5" id="Line-4-Copy-5" stroke="#000000" stroke-width="10" stroke-linecap="square"></path>
                <path d="M1394,557 L1374.5,513.5" id="Line-4-Copy-6" stroke="#000000" stroke-width="10" stroke-linecap="square"></path>
                <path d="M917,655 L897.5,611.5" id="Line-4-Copy-7" stroke="#000000" stroke-width="10" stroke-linecap="square"></path>
                <path d="M793,655 L773.5,611.5" id="Line-4-Copy-8" stroke="#000000" stroke-width="10" stroke-linecap="square"></path>
            </g>
        </g>
    </g>
</svg>