<?xml version="1.0" encoding="UTF-8"?>
<svg width="320px" height="191px" viewBox="0 0 320 191" version="1.1" xmlns="http://www.w3.org/2000/svg" xmlns:xlink="http://www.w3.org/1999/xlink">
    <!-- Generator: Sketch 51.2 (57519) - http://www.bohemiancoding.com/sketch -->
    <title>Cover</title>
    <desc>Created with Sketch.</desc>
    <defs></defs>
    <g id="Page-1" stroke="none" stroke-width="1" fill="none" fill-rule="evenodd">
        <g id="Portfolio-Copy-11">
            <g id="Cover">
                <rect id="Rectangle-2" fill="#FFFFFF" x="0" y="0" width="320" height="190"></rect>
                <circle id="Oval-5" stroke="#000000" stroke-width="3" cx="246.5" cy="59.5" r="26.5"></circle>
                <path d="M70.9330033,125.991443 C107.340708,94.4504734 140.064747,89.4788077 169.105121,111.076446 L207.080345,140.977477 C180.774762,157.233784 161.321556,169.184702 148.720728,176.83023 C136.119899,184.475759 130.468002,188.532349 131.765037,189 L118.130124,189 C103.991481,167.830846 94.0484023,153.636717 88.300888,146.417614 C82.5533737,139.198511 76.7640788,132.389788 70.9330033,125.991443 Z" id="Path-8" stroke="#000000" stroke-width="3"></path>
                <path d="M319,189 L319,114.765736 C297.226444,103.201581 259.486664,112.682919 205.78066,143.209751 C152.074656,173.736584 127.296601,189 131.446496,189 L319,189 Z" id="Path-9" stroke="#000000" stroke-width="3"></path>
                <path d="M1,112.576653 L1,189 L116,189 C93.142005,151.231439 72.3529429,126.65465 53.6328136,115.269634 C34.9126843,103.884617 17.3684131,102.986957 1,112.576653 Z" id="Path-10" stroke="#000000" stroke-width="3"></path>
                <text id="Daria-Ostrovskaya" font-family="Montserrat-Black, Montserrat Black" font-size="16" font-weight="700" letter-spacing="0.486636221" fill="#000000">
                    <tspan x="21.4235921" y="25">DARIA OSTROVSKAYA</tspan>
                </text>
                <path d="M218,160 L214.1,150.113636" id="Line-4" stroke="#000000" stroke-width="3" stroke-linecap="square"></path>
                <path d="M246,144 L242.1,134.113636" id="Line-4-Copy" stroke="#000000" stroke-width="3" stroke-linecap="square"></path>
                <path d="M250,179 L246.1,169.113636" id="Line-4-Copy-2" stroke="#000000" stroke-width="3" stroke-linecap="square"></path>
                <path d="M300,177 L296.1,167.113636" id="Line-4-Copy-3" stroke="#000000" stroke-width="3" stroke-linecap="square"></path>
                <path d="M274,158 L270.1,148.113636" id="Line-4-Copy-4" stroke="#000000" stroke-width="3" stroke-linecap="square"></path>
                <path d="M285,134 L281.1,124.113636" id="Line-4-Copy-5" stroke="#000000" stroke-width="3" stroke-linecap="square"></path>
                <path d="M308,158 L304.1,148.113636" id="Line-4-Copy-6" stroke="#000000" stroke-width="3" stroke-linecap="square"></path>
                <path d="M203,179 L199.1,169.113636" id="Line-4-Copy-7" stroke="#000000" stroke-width="3" stroke-linecap="square"></path>
                <path d="M175,179 L171.1,169.113636" id="Line-4-Copy-8" stroke="#000000" stroke-width="3" stroke-linecap="square"></path>
            </g>
        </g>
    </g>
</svg>