<?xml version="1.0" encoding="UTF-8"?>
<svg width="614px" height="448px" viewBox="0 0 614 448" version="1.1" xmlns="http://www.w3.org/2000/svg" xmlns:xlink="http://www.w3.org/1999/xlink">
    <!-- Generator: Sketch 51.2 (57519) - http://www.bohemiancoding.com/sketch -->
    <title>Group 2</title>
    <desc>Created with Sketch.</desc>
    <defs>
        <rect id="path-1" x="0" y="0" width="614" height="448"></rect>
        <ellipse id="path-3" cx="290.283462" cy="303.843619" rx="290.200594" ry="303.434497"></ellipse>
        <rect id="path-5" x="-67" y="84" width="614" height="448"></rect>
    </defs>
    <g id="Page-1" stroke="none" stroke-width="1" fill="none" fill-rule="evenodd">
        <g id="Portfolio-Copy-9" transform="translate(-92.000000, -1540.000000)">
            <g id="Group-2" transform="translate(92.000000, 1540.000000)">
                <mask id="mask-2" fill="white">
                    <use xlink:href="#path-1"></use>
                </mask>
                <rect stroke="#000000" stroke-width="10" x="5" y="5" width="604" height="438"></rect>
                <g id="Shape" mask="url(#mask-2)">
                    <g transform="translate(67.000000, -84.000000)">
                        <mask id="mask-4" fill="white">
                            <use xlink:href="#path-3"></use>
                        </mask>
                        <use id="Mask" stroke="#000000" stroke-width="10" fill="none" fill-rule="nonzero" xlink:href="#path-3"></use>
                        <path d="M207.205213,279.192605 L193.751719,266.945734 L193.751719,285.549717 L193.751719,803.893612 L157.873934,789.186105 L157.873934,285.549717 L157.873934,265.994138 L144.199226,279.400943 L-71.4888243,490.857954 C-86.0656961,421.808124 -68.4524043,369.228224 -39.4008844,330.927894 C-8.15453152,289.733361 36.6680915,264.676544 70.167691,254.279372 L68.9702143,237.820141 L-149.55684,206.104404 C-85.3696019,170.321581 -37.5543689,152.96706 1.58213297,148.174733 C44.5192982,142.917306 77.6089214,152.708609 111.242656,171.165066 L121.434729,158.515034 L4.00034356,1 C75.3902903,9.60265276 120.709428,31.2607517 149.030779,56.5056355 C179.645942,83.7950429 191.092824,115.885787 193.797693,142.223598 L195.193667,155.819596 L206.246799,148.433747 C287.442641,94.1770112 360.058189,94.4371516 417.941638,116.194352 C468.858736,135.332129 508.780034,171.282186 533,202.513115 L306.071138,202.513115 L303.390607,218.930679 C377.073825,245.787082 414.50714,298.669354 431.647175,354.120934 C446.85091,403.305495 446.04502,454.528385 439.884559,491.009984 L207.205213,279.192605 Z" id="Shape" stroke="#000000" stroke-width="10" fill="#FFFFFF" fill-rule="nonzero" mask="url(#mask-4)"></path>
                        <ellipse id="Mask" stroke="#000000" stroke-width="10" fill="none" fill-rule="nonzero" mask="url(#mask-4)" cx="290.283462" cy="303.843619" rx="290.200594" ry="303.434497"></ellipse>
                        <mask id="mask-6" fill="white">
                            <use xlink:href="#path-5"></use>
                        </mask>
                        <rect stroke="#000000" stroke-width="10" x="-62" y="89" width="604" height="438"></rect>
                    </g>
                </g>
            </g>
        </g>
    </g>
</svg>