<?xml version="1.0" encoding="UTF-8"?>
<svg width="614px" height="448px" viewBox="0 0 614 448" version="1.1" xmlns="http://www.w3.org/2000/svg" xmlns:xlink="http://www.w3.org/1999/xlink">
    <!-- Generator: Sketch 51.2 (57519) - http://www.bohemiancoding.com/sketch -->
    <title>Group 2</title>
    <desc>Created with Sketch.</desc>
    <defs>
        <rect id="path-1" x="0" y="0" width="614" height="448"></rect>
    </defs>
    <g id="Page-1" stroke="none" stroke-width="1" fill="none" fill-rule="evenodd">
        <g id="Portfolio-Copy-8" transform="translate(-92.000000, -1540.000000)">
            <g id="Group-2" transform="translate(92.000000, 1540.000000)">
                <mask id="mask-2" fill="white">
                    <use xlink:href="#path-1"></use>
                </mask>
                <use id="Rectangle-23" fill="#0F2D0D" xlink:href="#path-1"></use>
                <ellipse id="Oval" fill="#FFBD8C" fill-rule="nonzero" mask="url(#mask-2)" cx="357.283462" cy="219.843619" rx="290.200594" ry="303.434497"></ellipse>
                <path d="M274.205213,195.192605 L260.751719,182.945734 L260.751719,201.549717 L260.751719,719.893612 L224.873934,705.186105 L224.873934,201.549717 L224.873934,181.994138 L211.199226,195.400943 L-4.48882434,406.857954 C-19.0656961,337.808124 -1.45240425,285.228224 27.5991156,246.927894 C58.8454685,205.733361 103.668092,180.676544 137.167691,170.279372 L135.970214,153.820141 L-82.5568399,122.104404 C-18.3696019,86.3215807 29.4456311,68.9670604 68.582133,64.174733 C111.519298,58.9173061 144.608921,68.7086092 178.242656,87.1650663 L188.434729,74.5150338 L71.0003436,-83 C142.39029,-74.3973472 187.709428,-52.7392483 216.030779,-27.4943645 C246.645942,-0.204957133 258.092824,31.8857868 260.797693,58.2235983 L262.193667,71.819596 L273.246799,64.4337473 C354.442641,10.1770112 427.058189,10.4371516 484.941638,32.1943517 C535.858736,51.332129 575.780034,87.2821858 600,118.513115 L373.071138,118.513115 L370.390607,134.930679 C444.073825,161.787082 481.50714,214.669354 498.647175,270.120934 C513.85091,319.305495 513.04502,370.528385 506.884559,407.009984 L274.205213,195.192605 Z" id="Shape" fill="#0F2E0E" fill-rule="nonzero" mask="url(#mask-2)"></path>
            </g>
        </g>
    </g>
</svg>