<?xml version="1.0" encoding="UTF-8"?>
<svg width="1254px" height="772px" viewBox="0 0 1254 772" version="1.1" xmlns="http://www.w3.org/2000/svg" xmlns:xlink="http://www.w3.org/1999/xlink">
    <!-- Generator: Sketch 51.2 (57519) - http://www.bohemiancoding.com/sketch -->
    <title>screen</title>
    <desc>Created with Sketch.</desc>
    <defs></defs>
    <g id="Page-1" stroke="none" stroke-width="1" fill="none" fill-rule="evenodd" stroke-linecap="square">
        <g id="Portfolio" transform="translate(-92.000000, -9.000000)" stroke="#000000" stroke-width="20">
            <g id="screen" transform="translate(106.000000, 23.000000)">
                <path d="M0.5,98.5 L43.5,163.5" id="Line-3"></path>
                <path d="M1171.5,474.5 L1214.5,539.5" id="Line-3-Copy-58"></path>
                <path d="M4.5,376.5 L47.5,441.5" id="Line-3-Copy-29"></path>
                <path d="M938.5,449.5 L981.5,514.5" id="Line-3-Copy-8"></path>
                <path d="M309.5,234.5 L352.5,299.5" id="Line-3-Copy-24"></path>
                <path d="M917.5,0.5 L960.5,65.5" id="Line-3-Copy-34"></path>
                <path d="M816.5,238.5 L859.5,303.5" id="Line-3-Copy-40"></path>
                <path d="M555.5,9.5 L598.5,74.5" id="Line-3-Copy-52"></path>
                <path d="M643.5,315.5 L686.5,380.5" id="Line-3-Copy-45"></path>
                <path d="M385.5,418.5 L428.5,483.5" id="Line-3-Copy-46"></path>
                <path d="M92.5,0.5 L135.5,65.5" id="Line-3-Copy-31"></path>
                <path d="M25.5,539.5 L68.5,604.5" id="Line-3-Copy-19"></path>
                <path d="M289.5,98.5 L332.5,163.5" id="Line-3-Copy-4"></path>
                <path d="M0.5,678.5 L43.5,743.5" id="Line-3-Copy-30"></path>
                <path d="M78.5,180.5 L121.5,245.5" id="Line-3-Copy-9"></path>
                <path d="M318.5,539.5 L361.5,604.5" id="Line-3-Copy-21"></path>
                <path d="M873.5,278.5 L916.5,343.5" id="Line-3-Copy-35"></path>
                <path d="M772.5,516.5 L815.5,581.5" id="Line-3-Copy-41"></path>
                <path d="M582.5,98.5 L625.5,163.5" id="Line-3-Copy-5"></path>
                <path d="M245.5,376.5 L288.5,441.5" id="Line-3-Copy-22"></path>
                <path d="M800.5,115.5 L843.5,180.5" id="Line-3-Copy-36"></path>
                <path d="M1168.5,678.5 L1211.5,743.5" id="Line-3-Copy-55"></path>
                <path d="M895.5,564.5 L938.5,629.5" id="Line-3-Copy-62"></path>
                <path d="M414.5,157.5 L457.5,222.5" id="Line-3-Copy-47"></path>
                <path d="M715.5,581.5 L758.5,646.5" id="Line-3-Copy-44"></path>
                <path d="M1020.5,515.5 L1063.5,580.5" id="Line-3-Copy-14"></path>
                <path d="M999.5,66.5 L1042.5,131.5" id="Line-3-Copy-37"></path>
                <path d="M1176.5,310.5 L1219.5,375.5" id="Line-3-Copy-25"></path>
                <path d="M1168.5,98.5 L1211.5,163.5" id="Line-3-Copy-7"></path>
                <path d="M1020.5,0.5 L1063.5,65.5" id="Line-3-Copy-38"></path>
                <path d="M1182.5,244.5 L1225.5,309.5" id="Line-3-Copy-26"></path>
                <path d="M128.5,539.5 L171.5,604.5" id="Line-3-Copy-23"></path>
                <path d="M772.5,669.5 L815.5,734.5" id="Line-3-Copy-10"></path>
                <path d="M77.5,65.5 L120.5,130.5" id="Line-3-Copy-32"></path>
                <path d="M400.5,653.5 L443.5,718.5" id="Line-3-Copy-15"></path>
                <path d="M151.5,343.5 L194.5,408.5" id="Line-3-Copy-13"></path>
                <path d="M1035.5,278.5 L1078.5,343.5" id="Line-3-Copy-39"></path>
                <path d="M296.5,678.5 L339.5,743.5" id="Line-3-Copy-16"></path>
                <path d="M962.5,669.5 L1005.5,734.5" id="Line-3-Copy-12"></path>
                <path d="M333.5,454.5 L376.5,519.5" id="Line-3-Copy-27"></path>
                <path d="M1058.5,377.5 L1101.5,442.5" id="Line-3-Copy-53"></path>
                <path d="M560.5,483.5 L603.5,548.5" id="Line-3-Copy-49"></path>
                <path d="M569.5,344.5 L612.5,409.5" id="Line-3-Copy-56"></path>
                <path d="M590.5,653.5 L633.5,718.5" id="Line-3-Copy-17"></path>
                <path d="M1182.5,587.5 L1225.5,652.5" id="Line-3-Copy-11"></path>
                <path d="M717.5,107.5 L760.5,172.5" id="Line-3-Copy-54"></path>
                <path d="M1085.5,670.5 L1128.5,735.5" id="Line-3-Copy-57"></path>
                <path d="M795.5,401.5 L838.5,466.5" id="Line-3-Copy-50"></path>
                <path d="M875.5,678.5 L918.5,743.5" id="Line-3-Copy-2"></path>
                <path d="M473.5,483.5 L516.5,548.5" id="Line-3-Copy-51"></path>
                <path d="M482.5,344.5 L525.5,409.5" id="Line-3-Copy-61"></path>
                <path d="M180.5,65.5 L223.5,130.5" id="Line-3-Copy-33"></path>
                <path d="M503.5,678.5 L546.5,743.5" id="Line-3-Copy-18"></path>
            </g>
        </g>
    </g>
</svg>