<?xml version="1.0" encoding="UTF-8"?>
<svg width="612px" height="450px" viewBox="0 0 612 450" version="1.1" xmlns="http://www.w3.org/2000/svg" xmlns:xlink="http://www.w3.org/1999/xlink">
    <!-- Generator: Sketch 51.2 (57519) - http://www.bohemiancoding.com/sketch -->
    <title>Path 5 + Path 12 Mask</title>
    <desc>Created with Sketch.</desc>
    <defs>
        <rect id="path-1" x="0" y="0" width="612" height="450"></rect>
    </defs>
    <g id="Page-1" stroke="none" stroke-width="1" fill="none" fill-rule="evenodd">
        <g id="Portfolio-Copy-8" transform="translate(-94.000000, -2107.000000)">
            <g id="Path-5-+-Path-12-Mask" transform="translate(94.000000, 2107.000000)">
                <mask id="mask-2" fill="white">
                    <use xlink:href="#path-1"></use>
                </mask>
                <use id="Mask" fill="#FEB5B1" xlink:href="#path-1"></use>
                <path d="M120.57483,74.3936296 C109.437256,91.314015 103.868469,106.99829 103.868469,121.446456 L62.8537282,205.853221 C43.4788689,243.365872 20.5810078,273.793998 -5.83985514,297.1376 C-32.2607181,320.481202 -79.0051525,355.480096 -146.073158,402.134281 C-162.454401,416.576278 -175.184974,433.010349 -184.264876,451.436496 L-215.295027,479.158262 C-219.232953,487.778115 -216.349396,492.088042 -206.644357,492.088042 L-189.125099,504.73717 L-166.406499,502.815416 C-135.674688,501.095147 -115.390836,498.877185 -105.554945,496.161527 C-90.8011083,492.088042 -21.6230696,470.223067 14.0980044,440.960808 C49.8190784,411.698549 101.964069,379.000482 146.989511,321.77981 C177.006473,283.632695 198.957467,238.85015 212.842494,187.432175 C220.01448,155.379738 214.968583,121.680714 197.704803,86.3351042 C193.68,76.7953888 180.871862,65.2789304 159.28039,51.7857288 L147.913278,41.0290075 L122.863624,-1.30945743 L103.868469,-6.31843726 C103.951377,-11.861037 99.4839105,-14.6323369 90.4660688,-14.6323369 C81.448227,-14.6323369 76.5470619,-16.421558 75.7625734,-20 C67.4604201,-19.3388482 68.9924799,-10.8470752 80.3587529,5.47531902 C100.130193,28.6861093 112.157199,47.1836761 116.439769,60.9680194 C120.524754,74.1163955 120.843694,73.9851679 120.57483,74.3936296 Z" id="Path-23" fill="#F8D41C" mask="url(#mask-2)"></path>
                <path d="M368.821056,68.8901469 C380.784937,17.1959563 391.933213,-14.3062956 402.265886,-25.6166088 C417.764894,-42.5820787 433.733569,-75.9639128 480.294984,-63.1299893 C511.335927,-54.5740402 544.336341,-36.5457039 579.296226,-9.04498023 C589.747277,-0.4283703 594.840385,6.58629607 594.575551,11.9990189 C593.588875,32.1648406 588.882733,92.5622791 566.365235,113.303323 C551.353569,127.130686 541.604193,136.361972 537.117106,140.997181 C580.733002,151.941424 613.235973,167.215396 634.626019,186.819097 C655.685277,203.976438 660.950092,217.035053 650.420463,225.994942 C634.626019,239.434775 659.457763,249.504236 659.457763,249.504236 C659.457763,249.504236 671.49866,281.136506 643.170927,307.645053 C614.843194,334.153599 609.854876,352.088525 560.589089,352.088525 C537.257249,340.780736 520.664876,326.991242 510.811971,310.720044 L531.003861,371.761653 C534.436889,401.524439 529.686288,422.714867 516.752057,435.332935 C497.350711,454.260037 478.620849,487.331343 402.265886,463.93187 C351.362577,448.332221 329.832389,405.730462 337.675321,336.126593 C300.213072,401.769328 261.65367,420.840334 221.997117,393.33961 C162.512286,352.088525 170.458747,366.978754 158.421639,272.483359 C162.004743,231.948004 173.496432,206.692933 192.896706,196.718146 C212.29698,186.743358 224.693914,183.443675 230.087508,186.819097 L192.896706,163.54838 C149.917132,130.571748 134.15804,102.253046 145.619428,78.592275 C162.811509,43.101118 160.436661,7.52664836 246.31753,-9.04498023 C303.571443,-20.0927326 334.02404,-13.0780663 337.675321,11.9990189 L368.821056,68.8901469 Z" id="Path-5" fill="#AE1834" mask="url(#mask-2)"></path>
            </g>
        </g>
    </g>
</svg>