<?xml version="1.0" encoding="UTF-8"?>
<svg width="614px" height="450px" viewBox="0 0 614 450" version="1.1" xmlns="http://www.w3.org/2000/svg" xmlns:xlink="http://www.w3.org/1999/xlink">
    <!-- Generator: Sketch 51.2 (57519) - http://www.bohemiancoding.com/sketch -->
    <title>Path 5 + Path 12 Mask Copy</title>
    <desc>Created with Sketch.</desc>
    <defs>
        <rect id="path-1" x="0" y="0" width="614" height="450"></rect>
    </defs>
    <g id="Page-1" stroke="none" stroke-width="1" fill="none" fill-rule="evenodd">
        <g id="Portfolio-Copy-9" transform="translate(-96.000000, -2107.000000)">
            <g id="Path-5-+-Path-12-Mask-Copy" transform="translate(96.000000, 2107.000000)">
                <mask id="mask-2" fill="white">
                    <use xlink:href="#path-1"></use>
                </mask>
                <use id="Mask" fill="#FFFFFF" xlink:href="#path-1"></use>
                <path d="M120.795212,74.9012471 C109.68336,91.7333712 104.127434,107.335833 104.127434,121.708633 L63.2074147,205.67511 C43.8773011,242.992085 21.0323219,273.26149 -5.32752291,296.483325 C-31.6873677,319.70516 -78.3238473,354.521491 -145.236962,400.932315 C-161.580373,415.298978 -174.281544,431.647326 -183.340476,449.977357 L-214.298964,477.554518 C-218.227796,486.129408 -215.350899,490.416853 -205.668273,490.416853 L-188.189476,503 L-165.523343,501.08827 C-134.862506,499.376975 -114.6255,497.170582 -104.812324,494.46909 C-90.0925607,490.416853 -21.0742865,468.665931 14.5642908,439.556312 C50.2028681,410.446693 102.227431,377.919189 147.148889,320.996994 C177.096528,283.048865 198.996827,238.499918 212.849786,187.350153 C220.005209,155.46491 214.970965,121.94167 197.747055,86.7804317 C193.731547,77.2904781 180.952989,65.8340925 159.411382,52.4112751 L148.070522,41.7106638 L123.078719,-0.406952321 L104.127434,-5.38980396 C104.21015,-10.9034921 99.7530008,-13.6603361 90.7559855,-13.6603361 C81.7589701,-13.6603361 76.8691241,-15.4402241 76.0864474,-19 C67.8034676,-18.342297 69.3319892,-9.89481933 80.6720122,6.34243291 C100.397791,29.4321495 112.39702,47.833228 116.6697,61.5456685 C120.745251,74.6254591 121.063454,74.494916 120.795212,74.9012471 Z" id="Path-23" stroke="#000000" stroke-width="10" fill="#FFFFFF" mask="url(#mask-2)"></path>
                <path d="M367.948667,68.3886966 C379.866533,16.8866777 390.971932,-14.4984655 401.264863,-25.7667329 C416.70426,-42.6691341 432.611517,-75.9268722 478.99385,-63.1406584 C509.915405,-54.6165159 542.788894,-36.6551994 577.614317,-9.25670892 C588.025172,-0.672131005 593.098692,6.31645854 592.834876,11.7090597 C591.851995,31.7999156 587.163954,91.9728282 564.733061,112.636768 C549.779132,126.412728 540.067254,135.609697 535.597425,140.227674 C579.045568,151.131232 611.423527,166.348424 632.731303,185.879249 C653.709565,202.972808 658.95413,215.982878 648.464999,224.909459 C632.731303,238.29933 657.467541,248.331358 657.467541,248.331358 C657.467541,248.331358 669.462126,279.846036 641.243346,306.256038 C613.024566,332.666039 608.055435,350.534292 558.979131,350.534292 C535.737028,339.26854 519.208473,325.530309 509.393463,309.319598 L529.507692,370.134286 C532.927516,399.78643 528.195187,420.898083 515.310703,433.469244 C495.983978,452.325985 477.326153,485.274349 401.264863,461.961863 C350.557336,446.420206 329.109957,403.976817 336.922724,334.631698 C299.60456,400.030409 261.193464,419.030518 221.689435,391.632028 C162.433393,350.534292 170.349291,365.369168 158.358479,271.225057 C161.927802,230.840391 173.375292,205.679205 192.700949,195.741498 C212.026607,185.803792 224.37586,182.516376 229.74871,185.879249 L192.700949,162.69504 C149.886682,129.840998 134.188201,101.62757 145.605507,78.0547572 C162.731465,42.6955376 160.365751,7.2533151 245.916309,-9.25670892 C302.950014,-20.2633916 333.285486,-13.2748021 336.922724,11.7090597 L367.948667,68.3886966 Z" id="Path-5" stroke="#000000" stroke-width="10" fill="#FFFFFF" mask="url(#mask-2)"></path>
                <rect id="Rectangle-3" stroke="#000000" stroke-width="10" mask="url(#mask-2)" x="6" y="5" width="604" height="440"></rect>
            </g>
        </g>
    </g>
</svg>