<?xml version="1.0" encoding="UTF-8"?>
<svg width="300px" height="218px" viewBox="0 0 300 218" version="1.1" xmlns="http://www.w3.org/2000/svg" xmlns:xlink="http://www.w3.org/1999/xlink">
    <!-- Generator: Sketch 51.2 (57519) - http://www.bohemiancoding.com/sketch -->
    <title>Path 5 + Path 12 Mask Copy</title>
    <desc>Created with Sketch.</desc>
    <defs></defs>
    <g id="Page-1" stroke="none" stroke-width="1" fill="none" fill-rule="evenodd">
        <g id="Portfolio-Copy-11" transform="translate(-10.000000, -822.000000)" stroke="#000000" stroke-width="5">
            <g id="Path-5-+-Path-12-Mask-Copy" transform="translate(10.000000, 822.000000)">
                <path d="M58.5753866,35.511524 C53.1785596,43.6696224 50.4801461,51.2317352 50.4801461,58.1978623 L30.6060277,98.8942585 C21.2177386,116.980838 10.1223424,131.651642 -2.68016086,142.906669 C-15.4826641,154.161697 -38.1331648,171.036278 -70.6316629,193.530413 C-78.5693643,200.493566 -84.7380952,208.41719 -89.1378558,217.301286 L-104.173838,230.667228 C-106.082,234.823257 -104.684743,236.901272 -99.9820657,236.901272 L-91.4929276,243 L-80.4843941,242.073434 C-65.5929761,241.244013 -55.7642255,240.174631 -50.9981423,238.865287 C-43.8490176,236.901272 -10.3280812,226.359158 6.98093587,212.250473 C24.2899529,198.141788 49.557349,182.376542 71.3748945,154.787815 C73.179174,152.506267 75.5883782,149.117353 78.6025072,144.621073 C76.9186972,134.98566 77.0805912,125.611969 79.0881892,116.5 C80.3236007,110.892786 82.9542895,101.796435 89.2728173,97.0875733 C93.4851692,93.9483321 99.3942301,90.6173593 107,87.0946549 C96.6662621,80.3152147 89.7064676,75.2815254 86.1206167,71.9935871 C75.4126835,62.1752693 70.6337522,53.3892171 69.6853786,49.552967 C67.5482421,40.9080717 69.6988571,39.3326532 71.3748945,35.511524 C72.1520087,33.7398129 73.4938489,30.0165997 75.4004152,24.3418842 L71.8225152,19.4249003 L59.6844452,-0.988427083 L50.4801461,-3.40348736 C50.52032,-6.07583045 48.3555626,-7.41200199 43.9858738,-7.41200199 C39.616185,-7.41200199 37.2412746,-8.27466799 36.8611426,-10 C32.8382481,-9.68122822 33.5806235,-5.58695267 39.0882691,2.28282668 C48.6687257,13.4738196 54.4965359,22.39235 56.5716996,29.0384179 C58.5511217,35.3778566 58.7056672,35.3145857 58.5753866,35.511524 Z" id="Path-23"></path>
                <path d="M179.920973,32.9378217 C185.718854,8.05158493 191.12148,-7.11399731 196.128852,-12.5589251 C203.63991,-20.7263167 211.378576,-36.7967535 233.942954,-30.6183406 C248.985872,-26.4993986 264.978381,-17.8203296 281.920479,-4.5811336 C286.985219,-0.432988676 289.453418,2.94396037 289.325075,5.54971355 C288.846916,15.257795 286.566248,44.3338853 275.653921,54.3188862 C268.379037,60.9755534 263.65434,65.4196111 261.479828,67.6510591 C282.616763,72.919756 298.368202,80.2728392 308.734148,89.7103088 C318.939788,97.9700697 321.491198,104.256652 316.388378,108.570056 C308.734148,115.040161 320.767993,119.887727 320.767993,119.887727 C320.767993,119.887727 326.603197,135.115902 312.875141,147.877451 C299.147086,160.639 296.729671,169.2731 272.854712,169.2731 C261.547744,163.829388 253.506824,157.190951 248.731955,149.357791 L258.517256,178.743993 C260.180954,193.072174 257.878739,203.273514 251.610612,209.348011 C242.208421,218.459758 233.131642,234.380702 196.128852,223.1159 C171.460326,215.606032 161.026465,195.097007 164.827271,161.588824 C146.672489,193.190067 127.986009,202.37109 108.767833,189.131894 C79.9405695,169.2731 83.7915468,176.441445 77.9581788,130.950167 C79.6946062,111.435935 85.2636554,99.2778247 94.6653266,94.475836 C104.066998,89.6738472 110.074743,88.0853382 112.688562,89.7103088 L94.6653266,78.5074915 C73.8367642,62.6321241 66.1996654,48.9991431 71.7540303,37.6085487 C80.0855777,20.5226572 78.9346898,3.39665786 120.55388,-4.5811336 C148.300007,-9.89966124 163.057804,-6.52271219 164.827271,5.54971355 L179.920973,32.9378217 Z" id="Path-5"></path>
                <rect id="Rectangle-3" x="2.5" y="2.5" width="295" height="213"></rect>
            </g>
        </g>
    </g>
</svg>